<svg width="1814" height="933" viewBox="0 0 1814 933" fill="none" xmlns="http://www.w3.org/2000/svg">
<path d="M461.767 408.652C458.396 399.217 463.311 388.836 472.746 385.465L989.492 200.84C998.927 197.469 1009.31 202.385 1012.68 211.82V211.82C1016.05 221.255 1011.13 231.637 1001.7 235.008L484.954 419.632C475.519 423.003 465.137 418.087 461.767 408.652V408.652Z" fill="url(#paint0_linear)"/>
<path d="M316.388 373.915C313.017 364.48 317.933 354.099 327.368 350.728L844.113 166.104C853.548 162.733 863.93 167.649 867.301 177.084V177.084C870.672 186.519 865.756 196.9 856.321 200.271L339.575 384.895C330.14 388.266 319.759 383.35 316.388 373.915V373.915Z" fill="url(#paint1_linear)"/>
<mask id="mask0" mask-type="alpha" maskUnits="userSpaceOnUse" x="18" y="3" width="1778" height="927">
<path d="M73.0879 795.605C44.3915 722.111 80.4976 639.246 153.863 610.223L1554.46 56.15C1628.29 26.9438 1711.79 63.3275 1740.67 137.285V137.285C1769.37 210.778 1733.26 293.643 1659.9 322.666L259.296 876.739C185.468 905.945 101.965 869.562 73.0879 795.605V795.605Z" fill="#FF4444"/>
</mask>
<g mask="url(#mask0)">
<path d="M48.6909 796.15C17.9627 717.453 56.9978 628.764 135.785 598.268L1304.52 145.896C1382.98 115.528 1471.22 154.365 1501.82 232.733V232.733C1532.55 311.43 1493.51 400.12 1414.72 430.615L245.989 882.987C167.53 913.356 79.2909 874.519 48.6909 796.15V796.15Z" fill="url(#paint2_linear)"/>
<path d="M218.729 1113.55C397.596 1200.48 683.249 1192.16 856.756 1094.97C1030.26 997.79 1025.94 848.571 847.05 761.648C668.162 674.725 382.53 683.063 209.002 780.227C35.4745 877.39 39.8403 1026.61 218.729 1113.55Z" fill="#6F0505"/>
<path d="M849.891 990.736L683.011 1093.64C681.625 1094.39 680.082 1094.81 678.505 1094.86C676.929 1094.9 675.364 1094.58 673.937 1093.91L458.203 977.54C457.651 977.371 457.165 977.032 456.815 976.572C456.464 976.112 456.267 975.554 456.25 974.976C456.233 974.398 456.398 973.829 456.721 973.349C457.044 972.87 457.509 972.503 458.051 972.302L624.931 869.397C626.316 868.643 627.86 868.227 629.436 868.181C631.012 868.135 632.577 868.461 634.004 869.132L849.801 985.496C850.352 985.672 850.833 986.016 851.178 986.481C851.523 986.945 851.714 987.505 851.724 988.084C851.734 988.662 851.562 989.229 851.234 989.704C850.905 990.18 850.435 990.541 849.891 990.736Z" fill="#EBEBEB"/>
<g filter="url(#filter0_d)">
<path d="M607.517 803.238C601.417 801.884 568.548 784.428 565.193 782.281C561.838 780.135 555.207 775.693 554.975 767.709C554.769 760.648 553.563 694.032 558.41 661.699C560.019 651.637 563.668 642.011 569.135 633.413C574.601 624.814 581.768 617.424 590.195 611.698C609.949 598.644 629.907 589.024 647.149 595.61C664.392 602.197 680.319 614.757 687.482 630.278C694.645 645.798 700.151 677.139 700.987 689.299C701.824 701.46 702.557 743.216 702.665 746.924C702.773 750.633 702.243 755.473 682.635 768.48C663.027 781.488 635.882 797.106 627.465 801.189C621.197 803.952 614.217 804.669 607.517 803.238V803.238Z" fill="#37474F"/>
<path d="M597.195 620.155C595.381 621.257 589.983 618.792 589.148 617.495C588.313 616.199 587.771 604.784 591.569 598.361C595.367 591.938 619.859 579.585 626.024 580.265C628.334 580.573 630.558 581.349 632.558 582.545C634.558 583.742 636.293 585.334 637.656 587.225C638.458 588.817 639.605 599.416 638.076 601.642C636.547 603.867 630.771 600.68 630.241 599.773C629.711 598.865 631.853 591.022 627.845 589.524C624.157 588.163 607.062 596.022 600.194 602.137C597.209 604.803 597.542 611.19 597.781 614.35C598.02 617.51 598.101 619.584 597.195 620.155Z" fill="#455A64"/>
<path d="M594.391 695.276C596.946 660.576 602.77 640.189 636.173 624.138C669.576 608.086 683.088 620.528 688.222 631.934C694.98 647.928 700.184 677.557 700.987 689.299C701.824 701.46 702.557 743.215 702.665 746.924C702.773 750.633 702.243 755.472 682.635 768.48C663.027 781.488 635.882 797.106 627.465 801.189C621.204 803.973 614.224 804.712 607.519 803.3C606.17 802.933 604.852 802.459 603.577 801.884C592.643 788.654 592.042 726.971 594.391 695.276Z" fill="#455A64"/>
<path d="M670.857 609.6C661.864 604.682 647.264 601.689 626.25 611.801C588.69 629.861 579.648 651.37 576.898 688.739C576.406 695.59 575.616 703.75 575.493 712.5L572.294 710.684C572.46 701.242 573.147 693.147 573.668 685.834C576.766 648.182 587.415 627.109 623.299 609.853C643.175 600.298 656.432 601.086 665.32 605.253C667.242 606.602 669.09 608.054 670.857 609.6Z" fill="#263238"/>
<path d="M672.205 610.526C663.233 605.607 648.612 602.614 627.619 612.726C590.038 630.787 580.996 652.295 578.246 689.664C577.754 696.516 576.964 704.676 576.841 713.425L573.642 711.61C573.808 702.167 574.495 694.073 575.016 686.759C578.114 649.108 588.762 628.014 624.647 610.778C644.523 601.223 658.145 602.316 667.033 606.461C668.832 607.718 670.559 609.075 672.205 610.526V610.526Z" fill="#455A64"/>
<path d="M660.842 643.784L649.146 637.539C648.569 637.237 647.897 637.174 647.274 637.365C646.651 637.556 646.129 637.985 645.82 638.559L634.62 659.417C634.308 659.991 634.236 660.665 634.419 661.292C634.602 661.92 635.026 662.449 635.599 662.765L647.149 669.056C647.723 669.368 648.397 669.44 649.025 669.257C649.652 669.074 650.181 668.65 650.497 668.077L661.84 647.089C661.996 646.808 662.094 646.498 662.128 646.178C662.162 645.858 662.131 645.534 662.038 645.226C661.945 644.918 661.791 644.632 661.586 644.384C661.381 644.136 661.128 643.932 660.842 643.784V643.784Z" fill="#263238"/>
<path d="M649.155 666.648L659.922 646.767C660 646.625 660.048 646.469 660.065 646.308C660.081 646.146 660.065 645.984 660.017 645.829C659.97 645.674 659.892 645.53 659.788 645.406C659.684 645.281 659.556 645.179 659.412 645.105L648.762 639.459C648.473 639.307 648.137 639.276 647.826 639.372C647.514 639.467 647.253 639.682 647.099 639.968L636.455 659.762C636.304 660.05 636.273 660.387 636.368 660.698C636.464 661.009 636.678 661.27 636.965 661.425L647.429 667.139C647.573 667.225 647.733 667.28 647.9 667.301C648.067 667.323 648.236 667.311 648.397 667.265C648.559 667.219 648.709 667.14 648.84 667.034C648.97 666.928 649.077 666.797 649.155 666.648V666.648Z" fill="#455A64"/>
<path d="M651.313 657.232C651.61 657.04 651.859 656.782 652.039 656.479C652.219 656.175 652.327 655.834 652.353 655.482L652.08 646.115C652.063 645.507 651.575 645.333 650.977 645.686C650.681 645.877 650.432 646.135 650.252 646.439C650.071 646.742 649.964 647.083 649.938 647.436L650.21 656.802C650.228 657.41 650.716 657.585 651.313 657.232Z" fill="#37474F"/>
<path d="M645.339 660.929C645.635 660.732 645.882 660.47 646.062 660.163C646.242 659.856 646.35 659.513 646.378 659.158L646.106 649.812C646.088 649.205 645.579 649.01 645.003 649.383C644.704 649.572 644.454 649.829 644.273 650.133C644.092 650.438 643.986 650.78 643.963 651.133L644.236 660.5C644.316 661.085 644.741 661.282 645.339 660.929Z" fill="#37474F"/>
<path d="M610.916 724.073C610.916 724.073 616.753 728.6 621.375 746.167C625.997 763.733 629.118 785.935 624.712 788.748C620.306 791.561 613.667 786.134 611.998 784.253C608.572 780.389 608.165 738.33 610.916 724.073Z" fill="#263238"/>
<path d="M610.917 724.073C610.917 724.073 616.753 728.6 621.375 746.166C625.997 763.733 629.118 785.935 624.712 788.748L692.675 745.957C697.123 743.143 697.552 719.704 692.951 702.138C689.909 690.586 684.782 685.199 681.652 682.857C680.934 682.336 680.077 682.041 679.19 682.011C678.303 681.98 677.428 682.216 676.676 682.688L610.917 724.073Z" fill="#37474F"/>
<path d="M680.305 685.602C683.664 687.14 689.411 691.482 692.295 703.373C692.77 704.989 692.781 706.706 692.328 708.329C691.875 709.951 690.975 711.414 689.731 712.55C687.473 714.251 638.798 743.835 632.353 747.944C626.794 751.483 623.73 747.084 622.411 744.312C620.171 739.386 618.256 735.561 616.618 732.631C615.34 729.421 613.405 726.512 610.938 724.093L675.827 685.921C676.49 685.505 677.245 685.259 678.026 685.203C678.807 685.147 679.59 685.284 680.305 685.602V685.602Z" fill="#263238"/>
<path d="M577.715 715.35C578.778 718.924 579.509 722.589 579.9 726.297C579.922 727.051 578.907 727.479 578.614 727.488C576.203 727.076 573.952 726.009 572.106 724.406C572.35 721.228 572.833 718.073 573.551 714.968L577.715 715.35Z" fill="#263238"/>
<path d="M579.766 712.333C579.743 711.542 579.486 710.775 579.027 710.129C578.568 709.484 577.928 708.989 577.188 708.708C576.448 708.426 575.641 708.37 574.869 708.547C574.097 708.724 573.395 709.126 572.851 709.702C572.308 710.278 571.948 711.002 571.816 711.783C571.684 712.564 571.787 713.367 572.111 714.089C572.435 714.812 572.966 715.422 573.637 715.842C574.308 716.263 575.089 716.475 575.88 716.452C576.942 716.421 577.948 715.97 578.676 715.198C579.405 714.425 579.797 713.395 579.766 712.333V712.333Z" fill="#263238"/>
<path d="M626.289 589.381C630.656 588.834 634.797 589.133 635.972 593.482C637.147 597.831 636.887 601.844 636.232 602.409C634.005 602.192 631.905 601.268 630.241 599.773C629.711 598.844 631.853 591.022 627.845 589.524C627.355 589.377 626.84 589.328 626.331 589.379L626.289 589.381Z" fill="#263238"/>
<path d="M677.089 682.445C677.755 682.025 678.514 681.777 679.299 681.721C680.084 681.665 680.87 681.804 681.589 682.125C684.947 683.663 690.694 688.005 693.578 699.896C694.051 701.513 694.061 703.229 693.608 704.851C693.154 706.473 692.256 707.935 691.014 709.073C688.757 710.774 640.102 740.357 633.657 744.467C628.098 748.005 625.013 743.607 623.695 740.835C616.425 726.701 610.917 724.073 610.917 724.073L677.089 682.445Z" fill="#37474F"/>
</g>
<path d="M331.693 396.851L309.545 410.499C309.641 409.508 309.675 408.512 309.647 407.517L309.457 401.001C309.119 389.392 300.83 384.914 290.963 391.053C286.701 393.838 283.101 397.522 280.414 401.846C278.332 387.226 266.734 382.195 253.054 390.626C238.262 399.76 226.681 421.237 227.186 438.588L227.471 448.353C227.488 452.253 228.389 456.099 230.105 459.601L211.707 470.938C208.824 472.942 206.454 475.597 204.788 478.688C203.121 481.779 202.206 485.219 202.116 488.729C202.304 495.162 206.906 497.649 212.386 494.26L332.374 420.257C335.257 418.252 337.628 415.597 339.294 412.506C340.96 409.416 341.875 405.976 341.965 402.466C341.775 395.949 337.215 393.46 331.693 396.851Z" fill="#F0F0F0"/>
<g filter="url(#filter1_d)">
<path d="M292.178 1003.71L291.783 1003.51L295.413 1001.26L451.797 904.811L687.925 1048.04C691.803 1050.13 692.577 1053.32 689.639 1055.11L684.313 1058.4L538.155 1148.69L537.063 1147.95L292.178 1003.71Z" fill="white"/>
<path opacity="0.5" d="M292.178 1003.71L291.783 1003.51L295.413 1001.26L451.797 904.811L687.925 1048.04C691.803 1050.13 692.577 1053.32 689.639 1055.11L684.313 1058.4L538.155 1148.69L537.063 1147.95L292.178 1003.71Z" fill="black"/>
<path d="M290.898 959.772L290.503 959.565L294.133 957.32L450.518 860.868L686.176 987.964C690.054 990.063 690.827 993.225 687.889 995.037L682.563 998.304L536.461 1092.2L290.898 959.772Z" fill="white"/>
<path opacity="0.5" d="M290.898 959.772L290.503 959.565L294.133 957.32L450.518 860.868L686.176 987.964C690.054 990.063 690.827 993.225 687.889 995.037L682.563 998.304L536.461 1092.2L290.898 959.772Z" fill="black"/>
<path d="M271.473 973.952L502.117 1098.33L670.681 994.347C671.236 994.143 671.712 993.77 672.044 993.28C672.375 992.791 672.544 992.21 672.526 991.619C672.509 991.028 672.307 990.458 671.948 989.988C671.589 989.519 671.091 989.174 670.525 989.003L442.302 865.921L294.231 957.317L290.577 959.587C290.09 960.144 289.795 960.843 289.736 961.581L289.778 963.038C289.825 964.642 287.474 967.409 284.537 969.22C284.388 969.325 284.227 969.411 284.058 969.477L278.97 966.732L276.58 968.163L276.245 968.343L274.526 969.415C273.071 970.582 272.007 972.165 271.473 973.952V973.952Z" fill="#263238"/>
<path d="M479.81 1092.05C481.991 1093.07 484.384 1093.57 486.794 1093.5C489.204 1093.43 491.563 1092.79 493.681 1091.64L646.866 997.228L409.38 856.596L403.822 853.597L251.031 960.739C247.282 963.06 247.387 966.655 251.265 968.755L479.81 1092.05Z" fill="white"/>
<path d="M532.982 907.601L653.019 983.945L588.229 937.208L622.811 915.877L664.407 938.37L665.637 980.612C665.742 984.207 661.882 989.4 660.4 988.617C657.723 989.347 655.129 990.351 652.659 991.614C648.641 994.056 644.93 996.972 641.607 1000.3L514.305 919.085L532.982 907.601Z" fill="white"/>
<path opacity="0.2" d="M532.982 907.601L653.019 983.945L588.229 937.208L622.811 915.877L664.407 938.37L665.637 980.612C665.742 984.207 661.882 989.4 660.4 988.617C657.723 989.347 655.129 990.351 652.659 991.614C648.641 994.056 644.93 996.972 641.607 1000.3L514.305 919.085L532.982 907.601Z" fill="black"/>
<path d="M253.674 918.724L254.853 959.217C254.989 960.819 255.498 962.366 256.34 963.735C257.182 965.103 258.334 966.256 259.702 967.099L464.705 1077.58L481.996 1086.95C483.439 1087.66 485.038 1087.99 486.643 1087.91L485.334 1042.92L253.674 918.724Z" fill="#F0F0F0"/>
<path d="M408.071 812.509L645.187 940.412L645.278 943.522C645.329 945.271 647.778 945.88 650.714 944.02C653.65 942.159 656.065 939.95 655.978 936.962L656.184 933.99L414.549 803.714L413.561 803.183C413.33 803.638 413.211 804.142 413.215 804.652L413.257 806.085C413.331 807.809 411.008 810.673 408.071 812.509Z" fill="white"/>
<path opacity="0.2" d="M408.071 812.509L645.187 940.412L645.278 943.522C645.329 945.271 647.778 945.88 650.714 944.02C653.65 942.159 656.065 939.95 655.978 936.962L656.184 933.99L414.549 803.714L413.561 803.183C413.33 803.638 413.211 804.142 413.215 804.652L413.257 806.085C413.331 807.809 411.008 810.673 408.071 812.509Z" fill="black"/>
<path d="M492.028 1034.9L641.918 942.501C643.831 941.424 645.58 940.547 646.32 940.914L645.309 940.409L408.193 812.505L405.403 811.03C404.171 810.703 402.883 810.651 401.63 810.877C400.376 811.102 399.187 811.6 398.147 812.336L249.379 904.019C245.63 906.341 245.736 909.96 249.613 912.035L478.206 1035.3C480.381 1036.32 482.764 1036.82 485.165 1036.75C487.566 1036.68 489.917 1036.04 492.028 1034.9V1034.9Z" fill="white"/>
<path d="M413.586 803.182L414.574 803.713L656.257 933.988C656.37 933.731 656.537 933.502 656.748 933.317L657.537 932.856L659.208 931.811L661.285 930.511C661.689 930.23 662.175 930.094 662.666 930.124C663.156 930.154 663.622 930.348 663.989 930.675C664.091 930.74 664.183 930.819 664.263 930.91C664.553 931.204 664.807 931.531 665.021 931.885C665.283 932.299 665.5 932.742 665.667 933.203C665.873 933.706 666.05 934.221 666.198 934.744C666.336 935.323 666.475 935.902 666.59 936.531C666.675 936.898 666.735 937.27 666.769 937.644L666.794 938.519C666.813 939.175 666.834 939.879 666.855 940.608L666.661 933.928C666.353 931.735 665.536 929.645 664.275 927.824C663.015 926.003 661.346 924.502 659.402 923.442L430.809 800.177C428.923 799.14 426.824 798.554 424.674 798.464C422.525 798.375 420.383 798.785 418.419 799.662L415.625 801.397L414.455 802.136C414.072 802.395 413.77 802.758 413.586 803.182V803.182Z" fill="white"/>
<path d="M246.604 908.038L246.786 914.306C246.884 915.145 247.2 915.944 247.702 916.625C248.203 917.305 248.874 917.843 249.646 918.185V918.185L463.246 1033.33L478.239 1041.43C480.402 1042.47 482.788 1042.96 485.185 1042.85L485.006 1036.68C482.596 1036.81 480.195 1036.31 478.035 1035.23L468.501 1030.09L249.613 912.035C248.787 911.718 248.067 911.176 247.535 910.469C247.002 909.762 246.68 908.92 246.604 908.038V908.038Z" fill="white"/>
<path opacity="0.2" d="M246.604 908.038L246.786 914.306C246.884 915.145 247.2 915.944 247.702 916.625C248.203 917.305 248.874 917.843 249.646 918.185V918.185L463.246 1033.33L478.239 1041.43C480.402 1042.47 482.788 1042.96 485.185 1042.85L485.006 1036.68C482.596 1036.81 480.195 1036.31 478.035 1035.23L468.501 1030.09L249.613 912.035C248.787 911.718 248.067 911.176 247.535 910.469C247.002 909.762 246.68 908.92 246.604 908.038V908.038Z" fill="black"/>
<path d="M338.856 741.516L317.714 781.906L350.719 798.254L373.352 762.343L338.856 741.516Z" fill="#FFA8A7"/>
<path d="M415.366 649.7C402.916 647.947 384.147 647.935 372.562 669.204C360.976 690.474 336.196 742.858 336.196 742.858C336.196 742.858 352.127 762.281 374.459 765.253L409.096 706.577L415.366 649.7Z" fill="white"/>
<path d="M503.596 845.198C510.917 887.895 502.968 896.271 463.43 938.606C442.211 961.323 407.81 994.732 407.81 994.732C407.81 994.732 408.719 1008.42 409.88 1039.11C410.935 1066.14 402.201 1154.45 402.201 1154.45C402.201 1154.45 384.014 1162.74 371.149 1155.07C371.149 1155.07 363.534 1089.77 359.456 1055.73C353.934 1009.7 351.07 986.489 353.137 976.486C354.97 967.656 394.91 914.077 404.054 899.126L317.417 952.898C319.503 965.823 320.744 978.87 321.131 991.956C321.228 1028.69 318.845 1102.13 318.845 1102.13C318.845 1102.13 298.946 1111.73 288.711 1104.25C288.711 1104.25 258.659 944.666 258.276 931.5C257.693 911.508 342.772 849.297 358.812 834.924C367.958 826.732 378.154 817.853 378.154 817.853L503.596 845.198Z" fill="#455A64"/>
<path d="M404.055 899.151C394.566 891.915 387.3 882.162 383.081 871.001C383.781 878.343 385.041 885.621 386.851 892.771C389.557 902.223 317.417 952.898 317.417 952.898L404.055 899.151Z" fill="#37474F"/>
<path d="M443.554 572.139C447.9 550.821 434.141 530.017 412.824 525.672C391.506 521.326 370.702 535.084 366.357 556.402C362.011 577.719 375.769 598.523 397.087 602.869C418.404 607.215 439.208 593.456 443.554 572.139Z" fill="#263238"/>
<path d="M490.876 671.375C490.876 671.375 500.825 679.06 501.558 704.225L503.14 758.564L504.416 849.988C485.599 871.711 397.918 866.241 374.931 820.718C374.931 820.718 372.292 724.254 371.663 702.635C371.033 681.016 382.362 652.606 415.341 649.701L458.432 658.414L490.876 671.375Z" fill="#263238"/>
<path d="M473.831 590.282C473.831 590.282 468.315 620.443 465.908 625.448C464.296 628.537 461.55 630.883 458.246 631.992L458.069 610.895L473.831 590.282Z" fill="#263238"/>
<path d="M464.564 547.568C466.775 547.255 469.028 547.447 471.153 548.13C473.279 548.814 475.221 549.971 476.835 551.514C482.238 556.73 479.788 573.625 473.733 590.284L461.75 592.019L464.564 547.568Z" fill="#263238"/>
<path d="M458.252 592.121C460.723 593.484 464.014 588.768 466.887 585.573C469.76 582.377 479.355 577.916 484.483 587.905C489.612 597.894 480.911 612.151 473.353 614.777C460.308 619.29 458.07 610.895 458.07 610.895L458.456 658.413C447.482 671.423 408.603 669.589 415.595 658.397L415.17 643.822C415.17 643.822 403.296 645.991 397.465 645.262C387.704 644.038 381.409 636.588 378.165 626.18C372.962 609.483 370.769 595.957 373.886 562.729C377.226 526.311 419.409 524.718 442.611 538.386C465.814 552.054 458.252 592.121 458.252 592.121Z" fill="#FFA8A7"/>
<path d="M424.948 601.405L422.907 601.465C419.344 601.568 415.887 600.253 413.294 597.807C410.701 595.361 409.187 591.985 409.083 588.423C408.979 584.86 410.295 581.402 412.741 578.81C415.187 576.217 418.562 574.702 422.125 574.599L424.19 574.539C427.752 574.435 431.21 575.751 433.803 578.196C436.395 580.642 437.91 584.018 438.014 587.58C438.117 591.143 436.802 594.601 434.356 597.194C431.91 599.786 428.535 601.301 424.972 601.405L424.948 601.405ZM422.191 576.858C419.227 576.944 416.419 578.204 414.385 580.361C412.35 582.517 411.256 585.394 411.342 588.357C411.428 591.321 412.688 594.128 414.845 596.163C417.001 598.197 419.878 599.292 422.841 599.206L424.906 599.145C427.87 599.059 430.677 597.799 432.712 595.643C434.746 593.486 435.841 590.61 435.755 587.646C435.668 584.683 434.408 581.875 432.252 579.84C430.095 577.806 427.219 576.711 424.255 576.798L422.191 576.858Z" fill="#263238"/>
<path d="M384.042 602.596L381.977 602.656C378.414 602.76 374.956 601.444 372.364 598.999C369.771 596.553 368.257 593.177 368.153 589.615C368.049 586.052 369.365 582.594 371.811 580.001C374.256 577.409 377.632 575.894 381.195 575.791L383.259 575.73C386.822 575.627 390.28 576.942 392.873 579.388C395.465 581.834 396.98 585.21 397.084 588.772C397.187 592.335 395.872 595.793 393.426 598.385C390.98 600.978 387.604 602.493 384.042 602.596V602.596ZM381.26 578.05C378.297 578.136 375.489 579.396 373.455 581.552C371.42 583.709 370.326 586.585 370.412 589.549C370.498 592.512 371.758 595.32 373.915 597.355C376.071 599.389 378.948 600.484 381.911 600.397L383.976 600.337C386.939 600.251 389.747 598.991 391.782 596.834C393.816 594.678 394.911 591.801 394.824 588.838C394.738 585.874 393.478 583.067 391.322 581.032C389.165 578.998 386.289 577.903 383.325 577.989L381.26 578.05Z" fill="#263238"/>
<path d="M409.151 585.771C408.299 584.681 407.205 583.806 405.956 583.213C404.706 582.621 403.336 582.328 401.953 582.358C400.799 582.275 399.641 582.469 398.577 582.923C397.512 583.377 396.57 584.077 395.83 584.967L393.993 583.659C394.943 582.468 396.171 581.528 397.569 580.924C398.968 580.319 400.493 580.068 402.012 580.193C403.764 580.159 405.499 580.543 407.072 581.313C408.646 582.083 410.014 583.217 411.063 584.621L409.151 585.771Z" fill="#263238"/>
<path d="M465.237 584.041L436.671 584.872L436.737 587.132L465.303 586.3L465.237 584.041Z" fill="#263238"/>
<path d="M458.37 596.178C459.584 596.142 463.953 588.381 466.886 585.573C470.93 581.663 464.564 547.569 464.564 547.569C464.564 547.569 468.324 538.926 460.052 530.366C454.185 524.264 444.642 523.837 428.318 521.76C419.752 520.672 406.76 518.643 398.187 517.313C387.979 515.714 379.492 513.967 372.51 520.492C369.768 523.012 367.873 526.319 367.087 529.96C366.3 533.6 366.661 537.395 368.118 540.822C370.301 545.086 374.057 548.334 378.592 549.877C378.592 549.877 383.128 553.684 398.607 555.105C414.086 556.526 438.046 553.616 441.312 553.059C445.764 552.322 446.837 556.618 449.611 568.401C452.025 578.664 454.36 596.222 458.37 596.178Z" fill="#263238"/>
<path d="M464.62 550.338L478.966 542.068C478.47 541.102 477.785 540.246 476.95 539.552C476.115 538.858 475.148 538.34 474.108 538.03C473.068 537.719 471.975 537.623 470.897 537.746C469.818 537.869 468.776 538.209 467.832 538.745C465.916 539.9 464.515 541.746 463.918 543.902C463.32 546.058 463.572 548.361 464.62 550.338V550.338Z" fill="#263238"/>
<path d="M415.197 643.943C415.197 643.943 436.69 638.965 444.103 634.738C448.479 632.288 452.014 628.576 454.247 624.086C453.232 628.523 451.337 632.712 448.674 636.404C443.341 643.634 415.339 649.652 415.339 649.652L415.197 643.943Z" fill="#F28F8F"/>
<path d="M418.767 587.873C418.826 588.725 419.133 589.541 419.652 590.219C420.171 590.898 420.878 591.408 421.685 591.687C422.492 591.967 423.363 592.002 424.19 591.789C425.017 591.577 425.764 591.125 426.336 590.491C426.908 589.857 427.281 589.069 427.408 588.225C427.535 587.38 427.411 586.517 427.051 585.743C426.691 584.969 426.111 584.317 425.384 583.87C424.656 583.423 423.813 583.201 422.959 583.229C422.379 583.259 421.811 583.403 421.286 583.652C420.761 583.901 420.291 584.252 419.901 584.683C419.512 585.114 419.212 585.618 419.017 586.165C418.822 586.713 418.738 587.293 418.767 587.873V587.873Z" fill="#263238"/>
<path d="M425.193 569.744L434.62 574.575C435.209 573.293 435.291 571.837 434.851 570.497C434.411 569.157 433.48 568.034 432.246 567.351C431.628 567.033 430.953 566.842 430.259 566.79C429.566 566.738 428.87 566.827 428.211 567.05C427.553 567.274 426.947 567.627 426.428 568.09C425.909 568.553 425.489 569.116 425.193 569.744V569.744Z" fill="#263238"/>
<path d="M416.407 617.87L406.629 621.874C406.862 622.532 407.224 623.135 407.696 623.649C408.167 624.163 408.737 624.577 409.372 624.865C410.007 625.153 410.694 625.309 411.391 625.325C412.088 625.341 412.781 625.216 413.429 624.958C414.746 624.391 415.792 623.336 416.348 622.015C416.903 620.693 416.924 619.207 416.407 617.87Z" fill="#F28F8F"/>
<path d="M378.616 574.893L386.88 568.161C386.47 567.607 385.952 567.141 385.357 566.792C384.762 566.443 384.103 566.219 383.419 566.132C382.734 566.045 382.04 566.097 381.377 566.287C380.713 566.476 380.095 566.797 379.56 567.232C378.447 568.143 377.729 569.447 377.553 570.873C377.377 572.3 377.758 573.74 378.616 574.893Z" fill="#263238"/>
<path d="M382.708 587.683C382.766 588.535 383.074 589.351 383.593 590.029C384.112 590.708 384.819 591.218 385.626 591.497C386.433 591.777 387.304 591.812 388.131 591.599C388.958 591.387 389.704 590.935 390.276 590.301C390.849 589.667 391.222 588.879 391.349 588.035C391.476 587.19 391.352 586.327 390.992 585.553C390.632 584.778 390.052 584.127 389.324 583.68C388.597 583.233 387.754 583.01 386.9 583.039C386.32 583.069 385.751 583.212 385.226 583.462C384.702 583.711 384.231 584.062 383.842 584.493C383.453 584.924 383.152 585.428 382.958 585.975C382.763 586.523 382.678 587.103 382.708 587.683V587.683Z" fill="#263238"/>
<path d="M404.007 583.587L404.286 609.86L388.664 606.887L404.007 583.587Z" fill="#F28F8F"/>
<path d="M383.838 802.663L383.909 805.092C383.943 806.334 383.65 807.563 383.059 808.656C382.468 809.749 381.599 810.666 380.54 811.317L314.216 852.147C313.159 852.798 311.95 853.16 310.709 853.196C309.468 853.233 308.24 852.941 307.147 852.352L181.304 784.516C180.209 783.929 179.288 783.063 178.635 782.007C177.981 780.95 177.617 779.74 177.579 778.498L177.529 776.773L310.56 848.485L383.838 802.663Z" fill="white"/>
<path opacity="0.6" d="M383.838 802.663L383.909 805.092C383.943 806.334 383.65 807.563 383.059 808.656C382.468 809.749 381.599 810.666 380.54 811.317L314.216 852.147C313.159 852.798 311.95 853.16 310.709 853.196C309.468 853.233 308.24 852.941 307.147 852.352L181.304 784.516C180.209 783.929 179.288 783.063 178.635 782.007C177.981 780.95 177.617 779.74 177.579 778.498L177.529 776.773L310.56 848.485L383.838 802.663Z" fill="black"/>
<path d="M177.603 776.795L249.753 732.295C250.384 731.905 251.107 731.689 251.849 731.667C252.591 731.646 253.326 731.82 253.979 732.172L383.405 801.97C383.548 802.05 383.668 802.166 383.753 802.306C383.839 802.447 383.886 802.607 383.891 802.771C383.895 802.935 383.857 803.097 383.781 803.242C383.704 803.387 383.59 803.51 383.452 803.598L310.633 848.507L177.603 776.795Z" fill="white"/>
<path opacity="0.5" d="M177.603 776.795L249.753 732.295C250.384 731.905 251.107 731.689 251.849 731.667C252.591 731.646 253.326 731.82 253.979 732.172L383.405 801.97C383.548 802.05 383.668 802.166 383.753 802.306C383.839 802.447 383.886 802.607 383.891 802.771C383.895 802.935 383.857 803.097 383.781 803.242C383.704 803.387 383.59 803.51 383.452 803.598L310.633 848.507L177.603 776.795Z" fill="black"/>
<path d="M311.06 842.271L349.965 818.285L232.298 754.854L193.17 778.725L311.06 842.271Z" fill="#263238"/>
<path d="M328.668 778.207L327.951 778.641L308.869 790.405L273.795 771.49L273.079 771.098L292.854 758.901L328.668 778.207Z" fill="#263238"/>
<path d="M327.951 778.641L308.868 790.405L273.795 771.49L292.878 759.727L327.951 778.641Z" fill="#263238"/>
<path opacity="0.7" d="M310.561 848.509L310.698 853.221C309.461 853.256 308.237 852.965 307.148 852.376L181.305 784.54C180.21 783.953 179.289 783.087 178.636 782.031C177.982 780.974 177.618 779.764 177.58 778.522L177.53 776.797L310.561 848.509Z" fill="black"/>
<path d="M308.575 849.612C307.411 850.115 306.149 850.345 304.883 850.285C303.617 850.225 302.382 849.877 301.271 849.266L175.996 781.729C174.908 781.146 173.962 780.33 173.227 779.338C172.492 778.346 171.986 777.204 171.745 775.994L155.92 695.934C155.831 695.487 155.777 695.033 155.759 694.578C155.68 692.343 156.491 690.168 158.014 688.531L288.206 758.745C289.031 759.168 289.752 759.769 290.316 760.506C290.88 761.242 291.273 762.095 291.466 763.002L308.575 849.612Z" fill="white"/>
<path opacity="0.5" d="M308.575 849.612C307.411 850.115 306.149 850.345 304.883 850.285C303.617 850.225 302.382 849.877 301.271 849.266L175.996 781.729C174.908 781.146 173.962 780.33 173.227 779.338C172.492 778.346 171.986 777.204 171.745 775.994L155.92 695.934C155.831 695.487 155.777 695.033 155.759 694.578C155.68 692.343 156.491 690.168 158.014 688.531L288.206 758.745C289.031 759.168 289.752 759.769 290.316 760.506C290.88 761.242 291.273 762.095 291.466 763.002L308.575 849.612Z" fill="black"/>
<path d="M310.561 848.509L309.749 849.019C309.381 849.245 308.997 849.444 308.599 849.612L291.49 763.001C291.311 762.104 290.937 761.258 290.394 760.522C289.852 759.786 289.155 759.178 288.351 758.741L158.16 688.527C158.654 688.011 159.213 687.562 159.823 687.19L290.285 757.517C291.088 757.955 291.786 758.563 292.328 759.299C292.87 760.035 293.244 760.881 293.424 761.778L310.561 848.509Z" fill="#E0E0E0"/>
<path d="M237.036 777.374C235.981 772.032 230.21 765.028 224.16 761.777C218.109 758.525 214.049 760.199 215.129 765.564C216.209 770.93 221.955 777.91 228.007 781.186C234.058 784.462 238.117 782.739 237.036 777.374Z" fill="white"/>
<path d="M488.322 672.155C479.52 667.938 467.355 686.015 471.927 704.407C476.498 722.8 498.263 787.297 498.263 787.297C498.263 787.297 408.741 797.926 401.141 799.096C395.84 799.882 389.81 797.359 384.832 795.875C378.062 793.836 371.24 792.479 364.562 790.242C363.397 789.747 362.136 789.518 360.871 789.571C360.237 789.617 359.635 789.871 359.159 790.294C358.684 790.717 358.361 791.284 358.241 791.909C358.231 792.67 358.447 793.417 358.862 794.055C361.107 798.315 364.4 801.934 368.431 804.57C370.378 805.645 372.235 806.876 373.984 808.25C375.059 809.264 377.451 812.087 376.574 813.693L341.512 835.257C341.512 835.257 349.931 842.16 379.42 832.962C390.056 829.846 400.407 825.828 410.36 820.951C410.36 820.951 516.251 822.268 535.2 815.93C541.892 813.669 544.182 808.813 538.982 787.181C533.025 762.119 516.698 716.572 512.944 704.526C504.721 678.436 502.965 679.095 488.322 672.155Z" fill="#FFA8A7"/>
<path d="M483.743 668.519C483.743 668.519 498.192 672.134 504.598 680.068C511.004 688.002 537.095 765.793 537.095 765.793C531.023 771.164 523.856 775.151 516.09 777.476C508.324 779.801 500.145 780.409 492.121 779.258C492.121 779.258 471.399 725.525 468.936 711.083C464.663 688.719 475.127 670.715 483.743 668.519Z" fill="white"/>
<path d="M407.933 723.434C406.591 717.396 410.284 714.006 416.198 715.9C419.333 717.083 422.147 718.984 424.415 721.451C426.682 723.919 428.339 726.883 429.253 730.107C430.598 736.218 409.25 729.425 407.933 723.434Z" fill="white"/>
<path d="M448.541 741.191L431 730.737C432.01 735.376 425.699 734.903 419.982 733.1C414.265 731.298 407.226 727.515 406.192 722.878L391.174 723.12C389.789 723.161 389.817 724.959 391.27 726.4C395.107 730.445 403.969 737.554 422.323 743.365C440.678 749.176 447.592 747.005 450.159 744.985C450.988 744.232 450.149 742.141 448.541 741.191Z" fill="white"/>
</g>
</g>
<path d="M598.922 825.683C595.119 816.663 599.348 806.269 608.367 802.466L1261.4 527.117C1270.42 523.314 1280.81 527.543 1284.61 536.562V536.562C1288.42 545.582 1284.19 555.976 1275.17 559.779L622.139 835.128C613.12 838.931 602.725 834.702 598.922 825.683V825.683Z" fill="url(#paint3_linear)"/>
<path d="M854.944 807.212C851.141 798.193 855.369 787.798 864.389 783.995L1430.9 545.129C1439.91 541.326 1450.31 545.555 1454.11 554.574V554.574C1457.92 563.594 1453.69 573.988 1444.67 577.791L878.161 816.657C869.141 820.46 858.747 816.232 854.944 807.212V807.212Z" fill="url(#paint4_linear)"/>
<defs>
<filter id="filter0_d" x="545.973" y="579.861" width="162.492" height="233.805" filterUnits="userSpaceOnUse" color-interpolation-filters="sRGB">
<feFlood flood-opacity="0" result="BackgroundImageFix"/>
<feColorMatrix in="SourceAlpha" type="matrix" values="0 0 0 0 0 0 0 0 0 0 0 0 0 0 0 0 0 0 127 0" result="hardAlpha"/>
<feOffset dy="4"/>
<feGaussianBlur stdDeviation="2"/>
<feComposite in2="hardAlpha" operator="out"/>
<feColorMatrix type="matrix" values="0 0 0 0 0 0 0 0 0 0 0 0 0 0 0 0 0 0 0.25 0"/>
<feBlend mode="normal" in2="BackgroundImageFix" result="effect1_dropShadow"/>
<feBlend mode="normal" in="SourceGraphic" in2="effect1_dropShadow" result="shape"/>
</filter>
<filter id="filter1_d" x="151.585" y="513.459" width="547.032" height="738" filterUnits="userSpaceOnUse" color-interpolation-filters="sRGB">
<feFlood flood-opacity="0" result="BackgroundImageFix"/>
<feColorMatrix in="SourceAlpha" type="matrix" values="0 0 0 0 0 0 0 0 0 0 0 0 0 0 0 0 0 0 127 0" result="hardAlpha"/>
<feOffset dy="4"/>
<feGaussianBlur stdDeviation="2"/>
<feComposite in2="hardAlpha" operator="out"/>
<feColorMatrix type="matrix" values="0 0 0 0 0 0 0 0 0 0 0 0 0 0 0 0 0 0 0.25 0"/>
<feBlend mode="normal" in2="BackgroundImageFix" result="effect1_dropShadow"/>
<feBlend mode="normal" in="SourceGraphic" in2="effect1_dropShadow" result="shape"/>
</filter>
<linearGradient id="paint0_linear" x1="377.461" y1="505.13" x2="717.973" y2="279.504" gradientUnits="userSpaceOnUse">
<stop stop-color="#C53F3F"/>
<stop offset="1" stop-color="#FF4444" stop-opacity="0"/>
</linearGradient>
<linearGradient id="paint1_linear" x1="232.082" y1="470.393" x2="572.594" y2="244.768" gradientUnits="userSpaceOnUse">
<stop stop-color="#C53F3F"/>
<stop offset="1" stop-color="#FF4444" stop-opacity="0"/>
</linearGradient>
<linearGradient id="paint2_linear" x1="106.705" y1="606.429" x2="1390.03" y2="138.772" gradientUnits="userSpaceOnUse">
<stop offset="0.335299" stop-color="#FF4444"/>
<stop offset="1" stop-color="#FF4444" stop-opacity="0"/>
</linearGradient>
<linearGradient id="paint3_linear" x1="491.542" y1="937.213" x2="877.93" y2="605.081" gradientUnits="userSpaceOnUse">
<stop stop-color="#C53F3F"/>
<stop offset="1" stop-color="#FF4444" stop-opacity="0"/>
</linearGradient>
<linearGradient id="paint4_linear" x1="764.106" y1="911.768" x2="1116.21" y2="631.173" gradientUnits="userSpaceOnUse">
<stop stop-color="#C53F3F"/>
<stop offset="1" stop-color="#FF4444" stop-opacity="0"/>
</linearGradient>
</defs>
</svg>
