<svg width="39" height="39" viewBox="0 0 39 39" fill="none" xmlns="http://www.w3.org/2000/svg">
<rect x="7.80005" y="7.79999" width="23.4" height="23.4" rx="11.7" fill="#C4C4C4"/>
<path d="M11.7 0H1.95C1.43283 0 0.936838 0.205446 0.571142 0.571142C0.205446 0.936838 0 1.43283 0 1.95V11.7C0 12.2172 0.205446 12.7132 0.571142 13.0789C0.936838 13.4446 1.43283 13.65 1.95 13.65C2.46717 13.65 2.96316 13.4446 3.32886 13.0789C3.69455 12.7132 3.9 12.2172 3.9 11.7V3.9H11.7C12.2172 3.9 12.7132 3.69455 13.0789 3.32886C13.4446 2.96316 13.65 2.46717 13.65 1.95C13.65 1.43283 13.4446 0.936838 13.0789 0.571142C12.7132 0.205446 12.2172 0 11.7 0ZM11.7 35.1H3.9V27.3C3.9 26.7828 3.69455 26.2868 3.32886 25.9211C2.96316 25.5554 2.46717 25.35 1.95 25.35C1.43283 25.35 0.936838 25.5554 0.571142 25.9211C0.205446 26.2868 0 26.7828 0 27.3V37.05C0 37.5672 0.205446 38.0632 0.571142 38.4289C0.936838 38.7946 1.43283 39 1.95 39H11.7C12.2172 39 12.7132 38.7946 13.0789 38.4289C13.4446 38.0632 13.65 37.5672 13.65 37.05C13.65 36.5328 13.4446 36.0368 13.0789 35.6711C12.7132 35.3054 12.2172 35.1 11.7 35.1ZM37.05 0H27.3C26.7828 0 26.2868 0.205446 25.9211 0.571142C25.5554 0.936838 25.35 1.43283 25.35 1.95C25.35 2.46717 25.5554 2.96316 25.9211 3.32886C26.2868 3.69455 26.7828 3.9 27.3 3.9H35.1V11.7C35.1 12.2172 35.3054 12.7132 35.6711 13.0789C36.0368 13.4446 36.5328 13.65 37.05 13.65C37.5672 13.65 38.0632 13.4446 38.4289 13.0789C38.7946 12.7132 39 12.2172 39 11.7V1.95C39 1.43283 38.7946 0.936838 38.4289 0.571142C38.0632 0.205446 37.5672 0 37.05 0ZM37.05 25.35C36.5328 25.35 36.0368 25.5554 35.6711 25.9211C35.3054 26.2868 35.1 26.7828 35.1 27.3V35.1H27.3C26.7828 35.1 26.2868 35.3054 25.9211 35.6711C25.5554 36.0368 25.35 36.5328 25.35 37.05C25.35 37.5672 25.5554 38.0632 25.9211 38.4289C26.2868 38.7946 26.7828 39 27.3 39H37.05C37.5672 39 38.0632 38.7946 38.4289 38.4289C38.7946 38.0632 39 37.5672 39 37.05V27.3C39 26.7828 38.7946 26.2868 38.4289 25.9211C38.0632 25.5554 37.5672 25.35 37.05 25.35Z" fill="#C4C4C4"/>
<path d="M15.6001 14.9776C15.6001 14.8624 15.6282 14.7495 15.6812 14.6485C15.8557 14.3216 16.25 14.2035 16.5632 14.3855L24.3665 18.908C24.4726 18.9696 24.5599 19.061 24.6182 19.1717C24.7927 19.4985 24.6789 19.9108 24.3665 20.0921L16.5632 24.6146C16.468 24.6702 16.3593 24.6997 16.2485 24.7C15.8905 24.7 15.6001 24.3969 15.6001 24.0233V14.9776Z" fill="#F2F2F2"/>
</svg>
