<svg width="105" height="134" viewBox="0 0 105 134" fill="none" xmlns="http://www.w3.org/2000/svg">
<path d="M99.8035 67.1908C99.8907 48.9677 85.1925 34.073 67.0368 33.9861C48.8811 33.8992 34.041 48.6526 33.9538 66.8757C33.8666 85.0988 48.5649 99.9935 66.7206 100.08C84.8762 100.167 99.7163 85.4139 99.8035 67.1908ZM73.6886 20.8635L60.5371 20.8005L60.6318 1L73.7834 1.06293L73.6886 20.8635ZM73.1518 133.067L60.0003 133.004L60.095 113.203L73.2465 113.266L73.1518 133.067ZM20.8299 73.4132L1.10257 73.3188L1.16573 60.1185L20.893 60.2129L20.8299 73.4132ZM38.8188 104.23L24.798 118.169L15.5445 108.792L29.5653 94.8533L38.8188 104.23ZM15.9465 24.785L25.2892 15.4968L39.176 29.5692L29.8332 38.8574L15.9465 24.785Z" fill="#FF4444"/>
<path d="M67.2575 100C76.0204 99.8611 84.8932 96.2977 90.9913 90.0031C97.0893 83.7086 100.437 75.2494 100.298 66.4866C100.159 57.7237 96.545 49.3749 90.2505 43.2768C83.9559 37.1788 76.0205 33.8611 67.2577 34C67.2577 34 67.0532 54.1073 67.2577 67.0104C67.4623 79.9135 67.2575 100 67.2575 100Z" fill="#263238"/>
</svg>
