<svg width="108" height="141" viewBox="0 0 108 141" fill="none" xmlns="http://www.w3.org/2000/svg">
<g filter="url(#filter0_d)">
<path d="M103.105 66.1908C103.192 47.9676 88.4937 33.073 70.338 32.9861C52.1823 32.8992 37.3422 47.6526 37.255 65.8757C37.1678 84.0988 51.8661 98.9935 70.0218 99.0803C88.1775 99.1672 103.018 84.4139 103.105 66.1908ZM76.9899 19.8635L63.8383 19.8005L63.9331 0L77.0846 0.0629242L76.9899 19.8635ZM76.453 132.067L63.3015 132.004L63.3962 112.203L76.5478 112.266L76.453 132.067ZM24.1311 72.4132L4.40381 72.3188L4.46697 59.1185L24.1943 59.2129L24.1311 72.4132ZM42.12 103.23L28.0992 117.169L18.8458 107.792L32.8666 93.8533L42.12 103.23ZM19.2477 23.785L28.5905 14.4968L42.4773 28.5692L33.1345 37.8573L19.2477 23.785Z" fill="#FF4444"/>
</g>
<path d="M71.0827 99.0509C79.8456 98.9119 88.1944 95.2977 94.2925 89.0031C100.391 82.7086 103.738 74.2494 103.599 65.4866C103.46 56.7237 99.8462 48.3749 93.5517 42.2768C87.2571 36.1788 78.798 32.831 70.0351 32.9699C70.0351 32.9699 70.3544 53.1073 70.5589 66.0104C70.7635 78.9135 71.0827 99.0509 71.0827 99.0509Z" fill="#263238"/>
<defs>
<filter id="filter0_d" x="0.403809" y="0" width="106.701" height="140.067" filterUnits="userSpaceOnUse" color-interpolation-filters="sRGB">
<feFlood flood-opacity="0" result="BackgroundImageFix"/>
<feColorMatrix in="SourceAlpha" type="matrix" values="0 0 0 0 0 0 0 0 0 0 0 0 0 0 0 0 0 0 127 0" result="hardAlpha"/>
<feOffset dy="4"/>
<feGaussianBlur stdDeviation="2"/>
<feComposite in2="hardAlpha" operator="out"/>
<feColorMatrix type="matrix" values="0 0 0 0 1 0 0 0 0 0.266667 0 0 0 0 0.266667 0 0 0 0.1 0"/>
<feBlend mode="normal" in2="BackgroundImageFix" result="effect1_dropShadow"/>
<feBlend mode="normal" in="SourceGraphic" in2="effect1_dropShadow" result="shape"/>
</filter>
</defs>
</svg>
