<svg width="136" height="186" viewBox="0 0 136 186" fill="none" xmlns="http://www.w3.org/2000/svg">
<g filter="url(#filter0_d)">
<path d="M130.381 101.903C130.356 102.306 130.237 102.699 130.034 103.048C129.83 103.398 129.547 103.695 129.208 103.915L8.91115 173.387C8.26715 173.759 7.7439 173.457 7.7439 172.707V75.237L10.9689 73.3755C11.6129 73.0032 12.6645 67.338 13.3135 66.9405L41.2872 50.7902C41.9362 50.4179 43.4607 54.619 44.1047 54.2417L130.381 4.43233V101.903Z" fill="#FAFAFA"/>
<path d="M11.2514 177.483C10.9714 177.648 10.6554 177.743 10.3307 177.759C9.86763 177.82 9.39713 177.737 8.98231 177.523C8.65316 177.298 8.38208 176.999 8.19139 176.649C8.00071 176.299 7.89586 175.909 7.8855 175.51V85.6523L10.0942 86.9252V176.803C10.0942 177.337 10.3609 177.644 10.7432 177.644C10.9226 177.629 11.0963 177.574 11.2514 177.483Z" fill="#F0F0F0"/>
<path d="M132.178 9.44903V105.999C132.155 106.31 132.063 106.612 131.907 106.882C131.751 107.152 131.535 107.383 131.277 107.558L10.98 177.015C10.9056 177.062 10.8212 177.091 10.7335 177.1C10.6228 177.1 10.6228 176.818 10.6228 176.803V79.6399L13.5812 77.9293C14.0491 77.6576 14.3409 76.747 15 74.4074C15.2352 73.4049 15.5585 72.425 15.966 71.4793L43.6882 55.4749C44.0169 55.9197 44.3113 56.389 44.5686 56.8786C45.3233 58.2068 45.7459 58.8911 46.3598 58.8911C46.4858 58.8911 46.6094 58.8563 46.717 58.7905L132.178 9.44903ZM132.721 8.51322L46.4453 58.3226C46.4195 58.3384 46.39 58.347 46.3598 58.3477C45.7057 58.3477 44.3473 54.8258 43.7133 54.8258C43.6853 54.8184 43.6558 54.8184 43.6278 54.8258L15.6541 70.9761C15.005 71.3535 13.9535 77.0136 13.3095 77.4111L10.0845 79.333V176.803C10.0845 177.337 10.3461 177.644 10.7335 177.644C10.9126 177.636 11.0863 177.58 11.2366 177.483L131.549 108.011C131.888 107.791 132.171 107.494 132.374 107.144C132.578 106.795 132.697 106.402 132.721 105.999V8.51322Z" fill="#E0E0E0"/>
<path d="M8.98368 82.9306C8.6536 82.7066 8.38155 82.4072 8.18996 82.0573C7.99838 81.7074 7.89276 81.3169 7.88184 80.9181V71.7864C7.90493 71.3841 8.02155 70.9927 8.22244 70.6433C8.42332 70.294 8.70292 69.9963 9.03902 69.7739L129.336 0.342721C129.675 0.128191 130.065 0.0104842 130.466 0.00237907C130.867 -0.00572608 131.262 0.0960793 131.609 0.296745C131.956 0.49741 132.241 0.789268 132.434 1.14063C132.626 1.49199 132.719 1.88944 132.702 2.28981V11.4115C132.678 11.8154 132.56 12.2081 132.356 12.5578C132.153 12.9074 131.869 13.2042 131.53 13.424L11.2528 82.8904C10.9042 83.0744 10.5172 83.1739 10.123 83.1809C9.72888 83.1879 9.3386 83.1022 8.98368 82.9306Z" fill="#C53F3F"/>
<path opacity="0.4" d="M132.706 2.05808C132.625 1.4493 132.132 1.22792 131.549 1.55495L11.2517 71.0264C10.9084 71.249 10.6236 71.551 10.4216 71.9069L8.2229 70.6339C8.41993 70.2847 8.69984 69.9892 9.03796 69.7736L129.335 0.342422C129.659 0.135857 130.032 0.0184292 130.416 0.00199799C130.799 -0.0144332 131.181 0.0707141 131.521 0.248841C131.862 0.426967 132.149 0.691766 132.355 1.0165C132.56 1.34123 132.676 1.7144 132.691 2.09833L132.706 2.05808Z" fill="white"/>
<path opacity="0.1" d="M10.4215 71.9069C10.2123 72.2558 10.0962 72.6525 10.0844 73.0591V86.9504L7.87566 85.6775V71.7862C7.87315 71.7393 7.87315 71.6922 7.87566 71.6453C7.88467 71.5472 7.8998 71.4497 7.92094 71.3535C7.98392 71.0996 8.08214 70.8557 8.21276 70.629L10.4215 71.9069Z" fill="black"/>
<path d="M132.716 2.24416V8.5131L46.4403 58.3224C45.7963 58.6998 45.273 58.3929 45.273 57.6482V55.2735C45.273 54.5289 44.7699 54.222 44.0957 54.5993L15.649 71.0213C15.3101 71.242 15.0276 71.5389 14.824 71.8884C14.6205 72.2379 14.5015 72.6301 14.4767 73.0338V75.4035C14.4512 75.807 14.3319 76.199 14.1284 76.5483C13.9249 76.8976 13.6428 77.1947 13.3045 77.416L10.0845 79.3329V73.0589C10.1095 72.6559 10.228 72.2642 10.4306 71.9149C10.6332 71.5656 10.9143 71.2683 11.2517 71.0464L131.549 1.61526C132.193 1.19263 132.716 1.49954 132.716 2.24416Z" fill="#C53F3F"/>
<path d="M127.222 6.1737C128.037 5.70579 128.696 6.08817 128.696 7.02901C128.668 7.54084 128.52 8.03892 128.264 8.48295C128.008 8.92697 127.651 9.30447 127.222 9.58488C126.407 10.0528 125.743 9.67041 125.743 8.72957C125.772 8.21739 125.921 7.71917 126.178 7.27517C126.435 6.83117 126.792 6.45385 127.222 6.1737Z" fill="white"/>
<path d="M121.909 9.23767C122.724 8.76976 123.383 9.1471 123.383 10.0879C123.356 10.6 123.208 11.0983 122.952 11.5425C122.696 11.9866 122.338 12.364 121.909 12.6438C121.094 13.1168 120.435 12.7344 120.435 11.7935C120.462 11.2817 120.61 10.7836 120.866 10.3396C121.123 9.89558 121.48 9.51808 121.909 9.23767Z" fill="white"/>
<path d="M116.596 12.3018C117.411 11.8289 118.07 12.2112 118.07 13.1521C118.042 13.6639 117.894 14.162 117.638 14.606C117.382 15.0501 117.025 15.4275 116.596 15.708C115.781 16.1759 115.122 15.7985 115.122 14.8577C115.149 14.3457 115.296 13.8473 115.552 13.4031C115.809 12.959 116.166 12.5816 116.596 12.3018Z" fill="white"/>
<path d="M132.721 8.51322V16.1356L10.0845 86.9503V79.333L12.4944 77.9394C13.1384 77.5671 13.3548 76.9985 13.6617 75.9269L14.4818 73.0892C14.7384 72.083 14.9849 71.434 15.6541 71.0768L43.6278 54.9265C44.2768 54.5541 44.785 54.5139 45.278 55.329L46.2843 57.1503C46.6516 57.7842 46.8377 58.1565 47.4817 57.7842L132.721 8.51322Z" fill="#E6E6E6"/>
<path d="M10.0842 79.3229V86.9503L7.87549 85.6774V78.0601L10.0842 79.3229Z" fill="#E0E0E0"/>
<path d="M15.4629 79.8764L13.6215 80.938L14.3208 79.5896C14.349 79.5388 14.3638 79.4817 14.3638 79.4236C14.3638 79.3655 14.349 79.3084 14.3208 79.2576C14.2654 79.1922 14.1749 79.2576 14.1095 79.3582L13.1032 81.2751C13.1032 81.2751 13.1032 81.3204 13.0781 81.3455C13.0529 81.3707 13.0781 81.3455 13.0781 81.3455C13.0756 81.3774 13.0756 81.4093 13.0781 81.4411C13.0747 81.4695 13.0747 81.4983 13.0781 81.5267C13.0853 81.5408 13.0937 81.5542 13.1032 81.5669L14.1095 82.3317C14.1238 82.3431 14.1415 82.3493 14.1598 82.3493C14.1781 82.3493 14.1958 82.3431 14.2101 82.3317C14.2616 82.2983 14.3005 82.2487 14.3208 82.1908C14.3761 82.065 14.3661 81.9241 14.3208 81.8788L13.6215 81.3355L15.4629 80.2739C15.5096 80.2367 15.5471 80.1891 15.5724 80.135C15.5977 80.0809 15.6102 80.0217 15.6088 79.9619C15.6088 79.8915 15.5434 79.8362 15.4629 79.8764Z" fill="#455A64"/>
<path d="M16.9972 78.9858L18.8387 77.9242L18.1343 77.3859C18.1043 77.3385 18.0884 77.2835 18.0884 77.2274C18.0884 77.1713 18.1043 77.1164 18.1343 77.0689C18.1846 76.9431 18.2802 76.8828 18.3406 76.928L19.3468 77.6978C19.3605 77.7081 19.3709 77.7221 19.377 77.7381C19.3822 77.7664 19.3822 77.7953 19.377 77.8236C19.3819 77.857 19.3819 77.8909 19.377 77.9242L19.3468 77.9997L18.3406 79.9216C18.3212 79.9677 18.2877 80.0065 18.245 80.0323C18.23 80.0465 18.2102 80.0544 18.1896 80.0544C18.169 80.0544 18.1492 80.0465 18.1343 80.0323C18.1056 79.9826 18.0905 79.9262 18.0905 79.8688C18.0905 79.8114 18.1056 79.755 18.1343 79.7053L18.8387 78.3569L16.9972 79.4185C16.9167 79.4638 16.8513 79.4185 16.8513 79.2776C16.8536 79.2214 16.8678 79.1664 16.893 79.1161C16.9181 79.0658 16.9536 79.0214 16.9972 78.9858Z" fill="#455A64"/>
<path d="M23.0347 73.6879C23.0347 73.5772 22.9291 73.5873 22.8788 73.6879L22.6272 74.3068C22.1945 74.2615 21.6763 74.6791 21.3241 75.4237C20.8663 76.3897 20.8663 77.5318 21.3241 77.9695C21.4343 78.0725 21.577 78.1339 21.7276 78.143C21.8782 78.1522 22.0273 78.1087 22.1492 78.0198C22.5175 77.7718 22.8059 77.4223 22.9794 77.0136C23.0072 76.9645 23.0218 76.909 23.0218 76.8526C23.0218 76.7962 23.0072 76.7407 22.9794 76.6916C22.919 76.6362 22.8284 76.6916 22.7681 76.8123C22.4259 77.5318 21.8725 77.8538 21.5354 77.5268C21.1983 77.1997 21.1933 76.3444 21.5354 75.625C21.7769 75.1218 22.1241 74.8099 22.4259 74.7898L22.2398 75.2577C22.1895 75.3784 22.2398 75.4891 22.3102 75.4388L23.0599 74.9357C23.0907 74.9128 23.1149 74.882 23.1299 74.8467C23.145 74.8113 23.1503 74.7725 23.1454 74.7344L23.0347 73.6879Z" fill="#455A64"/>
<path d="M42.8177 58.3578L43.4918 56.939C43.5297 56.8714 43.5496 56.7951 43.5496 56.7176C43.5496 56.6401 43.5297 56.5639 43.4918 56.4962C43.4113 56.4208 43.2805 56.4962 43.2051 56.6623L42.5309 58.0811L41.8617 57.4371C41.7812 57.3616 41.6554 57.4371 41.5749 57.6031C41.5345 57.6699 41.5132 57.7464 41.5132 57.8245C41.5132 57.9025 41.5345 57.9791 41.5749 58.0459L42.2441 58.705L41.5749 60.1238C41.5345 60.1905 41.5132 60.2671 41.5132 60.3451C41.5132 60.4232 41.5345 60.4997 41.5749 60.5665C41.5943 60.5838 41.6194 60.5934 41.6454 60.5934C41.6714 60.5934 41.6964 60.5838 41.7158 60.5665C41.7815 60.5243 41.8325 60.4628 41.8617 60.3904L42.5309 58.9716L43.2051 59.6156C43.2244 59.6329 43.2495 59.6425 43.2755 59.6425C43.3015 59.6425 43.3266 59.6329 43.3459 59.6156C43.4116 59.5734 43.4626 59.5119 43.4918 59.4395C43.5297 59.3719 43.5496 59.2957 43.5496 59.2181C43.5496 59.1406 43.5297 59.0644 43.4918 58.9968L42.8177 58.3578Z" fill="#455A64"/>
<path d="M25.48 75.4338V73.0591C25.5044 72.6553 25.6231 72.2629 25.8267 71.9134C26.0303 71.5639 26.3131 71.267 26.6523 71.0466L124.948 14.2992C125.597 13.9218 126.12 14.2287 126.12 14.9734V17.3481C126.096 17.7519 125.977 18.1443 125.773 18.4938C125.57 18.8433 125.287 19.1402 124.948 19.3606L26.6472 76.108C26.0032 76.4854 25.48 76.1785 25.48 75.4338Z" fill="#FAFAFA"/>
<path d="M123.353 19.5619C123.318 19.5676 123.282 19.5676 123.247 19.5619C123.181 19.5314 123.128 19.4794 123.096 19.4144C123.064 19.3494 123.055 19.2754 123.071 19.2047L123.187 18.2437L122.734 17.9167C122.695 17.8857 122.663 17.8458 122.642 17.8004C122.621 17.7549 122.611 17.7051 122.613 17.655C122.611 17.5769 122.628 17.4994 122.661 17.4287C122.694 17.3579 122.743 17.2959 122.804 17.2475L123.494 16.7142C123.507 16.6979 123.518 16.6791 123.524 16.6588L123.831 15.6526C123.85 15.5698 123.893 15.4944 123.955 15.4362C124.016 15.3779 124.094 15.3394 124.178 15.3256C124.235 15.3191 124.292 15.3314 124.341 15.3604C124.39 15.3895 124.428 15.4338 124.45 15.4866L124.706 16.035L125.29 15.8136C125.342 15.7904 125.4 15.7848 125.455 15.7975C125.511 15.8102 125.56 15.8406 125.597 15.884C125.645 15.9536 125.67 16.0361 125.67 16.1205C125.67 16.2049 125.645 16.2874 125.597 16.357L125.094 17.2928C125.091 17.3112 125.091 17.3297 125.094 17.3481L125.214 18.1934C125.224 18.2707 125.215 18.3491 125.189 18.4224C125.163 18.4958 125.12 18.562 125.063 18.616C125.031 18.6547 124.988 18.6847 124.941 18.7031C124.894 18.7216 124.842 18.7279 124.792 18.7217L124.253 18.6361L123.645 19.4109C123.612 19.4582 123.569 19.4968 123.518 19.5231C123.467 19.5494 123.41 19.5628 123.353 19.5619ZM123.021 17.5997L123.474 17.9267C123.52 17.9649 123.556 18.0149 123.577 18.0714C123.599 18.128 123.604 18.1892 123.594 18.2487L123.514 18.8927L123.921 18.3896C123.956 18.34 124.003 18.3002 124.058 18.2738C124.112 18.2474 124.173 18.2353 124.233 18.2387L124.797 18.3091C124.801 18.2874 124.801 18.2653 124.797 18.2437L124.676 17.3984C124.667 17.2941 124.688 17.1893 124.736 17.0966L125.174 16.2765L124.757 16.4425C124.69 16.4698 124.616 16.4704 124.55 16.4441C124.483 16.4178 124.429 16.3668 124.399 16.3016L124.198 15.8689L123.921 16.7695C123.893 16.8709 123.833 16.9606 123.75 17.0261L123.061 17.5292C123.041 17.5484 123.027 17.5729 123.021 17.5997Z" fill="#E0E0E0"/>
<path d="M127.504 14.0073C127.413 14.0099 127.325 13.9821 127.252 13.9284C127.18 13.8747 127.127 13.7981 127.104 13.7111C127.08 13.624 127.086 13.5314 127.121 13.4483C127.156 13.3651 127.218 13.2962 127.297 13.2526L130.598 11.3457C130.644 11.3153 130.696 11.2947 130.751 11.2851C130.805 11.2755 130.861 11.2771 130.915 11.2899C130.969 11.3027 131.02 11.3264 131.065 11.3594C131.109 11.3925 131.146 11.4344 131.174 11.4824C131.202 11.5304 131.22 11.5835 131.226 11.6386C131.233 11.6936 131.228 11.7494 131.212 11.8026C131.196 11.8557 131.17 11.9051 131.134 11.9477C131.099 11.9902 131.055 12.0251 131.005 12.0501L127.705 13.9519C127.645 13.9894 127.575 14.0087 127.504 14.0073Z" fill="#455A64"/>
<path d="M127.504 15.9393C127.432 15.94 127.362 15.9217 127.3 15.8863C127.239 15.851 127.187 15.7998 127.152 15.7381C127.098 15.6444 127.083 15.5335 127.111 15.4291C127.138 15.3247 127.205 15.2351 127.297 15.1796L130.598 13.2778C130.644 13.2506 130.695 13.2329 130.748 13.2255C130.802 13.2181 130.856 13.2213 130.907 13.2349C130.959 13.2484 131.008 13.2721 131.051 13.3045C131.093 13.3369 131.129 13.3774 131.156 13.4237C131.183 13.4699 131.201 13.5209 131.208 13.5738C131.215 13.6268 131.211 13.6805 131.197 13.732C131.183 13.7835 131.159 13.8317 131.126 13.8738C131.093 13.9159 131.052 13.951 131.005 13.9772L127.705 15.884C127.645 15.9215 127.575 15.9407 127.504 15.9393Z" fill="#455A64"/>
<path d="M127.503 17.8211C127.414 17.8213 127.327 17.792 127.255 17.7376C127.184 17.6833 127.132 17.6069 127.109 17.5203C127.085 17.4338 127.091 17.3419 127.125 17.2589C127.159 17.1759 127.22 17.1065 127.297 17.0613L130.598 15.1545C130.692 15.1014 130.803 15.0874 130.908 15.1157C131.012 15.1439 131.101 15.2121 131.156 15.3054C131.183 15.3516 131.2 15.4026 131.207 15.4555C131.214 15.5085 131.211 15.5622 131.197 15.6138C131.183 15.6653 131.158 15.7135 131.126 15.7555C131.093 15.7976 131.052 15.8327 131.005 15.8589L127.705 17.7657C127.643 17.8009 127.574 17.8199 127.503 17.8211Z" fill="#455A64"/>
<path d="M42.9734 72.2893V75.2125C42.9734 75.8112 43.396 76.0527 43.9142 75.7559L83.1227 53.0851V47.9834L43.9193 70.6542C43.6439 70.8329 43.4147 71.0742 43.2503 71.3584C43.0859 71.6425 42.991 71.9615 42.9734 72.2893Z" fill="#E6E6E6"/>
<path d="M88.0635 45.1206C88.5666 44.8187 89.0043 45.0652 89.0043 45.664V48.5871C88.9861 48.9135 88.8914 49.2311 88.728 49.5142C88.5646 49.7973 88.337 50.0381 88.0635 50.2172L83.1228 53.0699V47.9834L88.0635 45.1206Z" fill="#C53F3F"/>
<path d="M87.6963 49.1456L87.1479 48.9695C87.2039 48.7372 87.2326 48.4991 87.2334 48.2601C87.259 48.0371 87.226 47.8113 87.1378 47.6048C87.0496 47.3984 86.9091 47.2185 86.7303 47.0828C86.6058 47.0165 86.4656 46.9853 86.3247 46.9924C86.1839 46.9995 86.0476 47.0446 85.9303 47.1231C85.5795 47.3922 85.297 47.7401 85.1056 48.1387C84.9142 48.5372 84.8192 48.9753 84.8285 49.4173C84.8029 49.6403 84.8359 49.8662 84.9241 50.0726C85.0123 50.279 85.1528 50.4589 85.3316 50.5946C85.4375 50.6545 85.5571 50.6857 85.6788 50.6852C85.8388 50.6835 85.9953 50.6383 86.1316 50.5544C86.5521 50.2663 86.8653 49.847 87.0221 49.362L87.5755 49.533C87.5954 49.5379 87.6161 49.5379 87.6359 49.533C87.6873 49.5383 87.7388 49.5236 87.7797 49.492C87.8205 49.4603 87.8477 49.4142 87.8554 49.3631C87.8632 49.312 87.851 49.2598 87.8214 49.2175C87.7917 49.1751 87.7469 49.1458 87.6963 49.1356V49.1456ZM85.9303 50.2022C85.8735 50.2436 85.8065 50.2687 85.7365 50.2749C85.6664 50.2811 85.5961 50.2681 85.5328 50.2374C85.4219 50.1341 85.3371 50.0058 85.2854 49.8632C85.2338 49.7206 85.2169 49.5677 85.236 49.4173C85.2306 49.0472 85.3082 48.6807 85.4632 48.3446C85.6182 48.0085 85.8466 47.7114 86.1316 47.4752C86.2077 47.4293 86.2943 47.4034 86.3831 47.3998C86.4347 47.3982 86.4856 47.4122 86.529 47.44C86.64 47.5434 86.7248 47.6717 86.7764 47.8142C86.828 47.9568 86.845 48.1097 86.8259 48.2601C86.8305 48.6294 86.7525 48.9949 86.5976 49.3301C86.4426 49.6653 86.2146 49.9615 85.9303 50.1972V50.2022Z" fill="#FAFAFA"/>
<path d="M26.3056 81.1053L14.3102 88.3559C14.0367 88.5326 13.8088 88.7714 13.6453 89.053C13.4818 89.3346 13.3872 89.6509 13.3694 89.976V92.8891C13.3694 93.4878 13.792 93.7293 14.3102 93.4325L26.3056 86.1617C26.5786 85.9837 26.8057 85.7437 26.9683 85.4613C27.1309 85.1789 27.2245 84.862 27.2414 84.5366V81.6436C27.2414 81.0499 26.8238 80.8034 26.3056 81.1053Z" fill="#C53F3F"/>
<path d="M125.114 23.768C124.473 24.1869 123.939 24.7509 123.556 25.4143C123.173 26.0777 122.952 26.8219 122.91 27.5867C122.91 28.9954 123.916 29.564 125.114 28.8646C125.756 28.4454 126.291 27.8808 126.675 27.2165C127.059 26.5522 127.281 25.8069 127.323 25.0409C127.323 23.6321 126.331 23.0636 125.114 23.768Z" fill="#C53F3F"/>
<path d="M124.857 26.0019C124.788 26.0031 124.721 25.9857 124.661 25.9516C124.591 25.902 124.535 25.8352 124.498 25.7577C124.461 25.6802 124.444 25.5945 124.45 25.5088C124.459 25.3072 124.516 25.1106 124.617 24.9356C124.718 24.7606 124.859 24.6121 125.028 24.5026C125.097 24.4482 125.18 24.4158 125.268 24.4094C125.355 24.4031 125.443 24.4232 125.519 24.4672C125.595 24.5111 125.656 24.5768 125.694 24.6558C125.732 24.7347 125.745 24.8234 125.732 24.9101C125.722 25.1121 125.663 25.3086 125.562 25.4835C125.46 25.6584 125.319 25.8068 125.149 25.9164C125.06 25.9687 124.96 25.9981 124.857 26.0019Z" fill="white"/>
<path d="M125.984 26.1578C125.862 26.0967 125.725 26.07 125.588 26.0806C125.452 26.0913 125.321 26.1388 125.209 26.2182L124.887 26.4044C124.595 26.5896 124.351 26.8419 124.176 27.1403C124.001 27.4387 123.9 27.7746 123.881 28.12V28.3515C124.078 28.4366 124.294 28.4694 124.507 28.4464C124.72 28.4235 124.924 28.3457 125.099 28.2206C125.606 27.9049 126.025 27.4651 126.316 26.9427V26.8874C126.33 26.7473 126.306 26.6061 126.248 26.478C126.19 26.3499 126.099 26.2395 125.984 26.1578Z" fill="white"/>
<path d="M15.976 154.671L55.431 131.889C56.075 131.517 56.6033 131.784 56.5983 132.483C56.5694 132.877 56.4482 133.258 56.2446 133.597C56.0409 133.935 55.7605 134.22 55.426 134.43L15.976 157.212C15.332 157.584 14.8037 157.317 14.8037 156.618C14.8326 156.224 14.9538 155.843 15.1574 155.504C15.3611 155.166 15.6415 154.881 15.976 154.671Z" fill="#455A64"/>
<path d="M15.4628 159.27L37.6003 146.505C37.9676 146.294 38.2594 146.44 38.2594 146.837C38.2423 147.058 38.1739 147.272 38.0594 147.461C37.945 147.651 37.7877 147.811 37.6003 147.929L15.4879 160.693C15.1257 160.905 14.8289 160.754 14.8289 160.361C14.8431 160.143 14.9077 159.93 15.0177 159.741C15.1277 159.552 15.28 159.39 15.4628 159.27Z" fill="#E0E0E0"/>
<path d="M24.0766 158.761L52.3371 142.45C52.9811 142.073 53.5094 142.339 53.5094 143.044C53.4805 143.437 53.3593 143.819 53.1556 144.157C52.952 144.495 52.6716 144.781 52.3371 144.991L24.0766 161.302C23.4275 161.674 22.9043 161.413 22.9043 160.708C22.9332 160.315 23.0544 159.933 23.258 159.595C23.4617 159.257 23.7421 158.971 24.0766 158.761Z" fill="#455A64"/>
<path d="M23.5584 163.355L34.4812 157.051C34.8485 156.839 35.1403 156.99 35.1403 157.383C35.1244 157.604 35.0564 157.818 34.9419 158.008C34.8273 158.198 34.6695 158.358 34.4812 158.475L23.5584 164.779C23.1961 164.985 22.9043 164.839 22.9043 164.447C22.9196 164.226 22.9868 164.012 23.1005 163.822C23.2141 163.633 23.371 163.472 23.5584 163.355Z" fill="#E0E0E0"/>
<path d="M17.8579 161.659C16.9617 162.244 16.2158 163.031 15.6808 163.958C15.1458 164.884 14.8368 165.924 14.7788 166.992C14.7788 168.955 16.1574 169.755 17.8579 168.768C18.7547 168.185 19.501 167.397 20.0361 166.471C20.5712 165.544 20.8798 164.504 20.9371 163.435C20.9371 161.473 19.5585 160.678 17.8579 161.659Z" fill="#C53F3F"/>
<path d="M17.5002 164.789C17.4031 164.792 17.307 164.768 17.2235 164.718C17.1232 164.652 17.0426 164.56 16.9903 164.452C16.938 164.344 16.9161 164.224 16.9267 164.104C16.9404 163.822 17.0216 163.548 17.1634 163.303C17.3052 163.059 17.5035 162.853 17.7417 162.701C17.8396 162.631 17.9546 162.59 18.0743 162.581C18.194 162.572 18.3139 162.596 18.421 162.65C18.5213 162.716 18.6019 162.808 18.6542 162.916C18.7064 163.024 18.7284 163.145 18.7178 163.264C18.7042 163.546 18.6237 163.82 18.4828 164.064C18.3419 164.308 18.1448 164.515 17.9078 164.668C17.7846 164.743 17.6442 164.784 17.5002 164.789Z" fill="white"/>
<path d="M19.1005 164.995C18.9285 164.91 18.7367 164.873 18.5453 164.888C18.3539 164.903 18.1702 164.969 18.0137 165.081L17.571 165.337C17.1646 165.597 16.8265 165.951 16.5849 166.368C16.3432 166.786 16.2052 167.255 16.1824 167.737V168.054C16.4571 168.174 16.7585 168.221 17.0567 168.189C17.3549 168.157 17.6397 168.048 17.8829 167.873C18.5917 167.433 19.1769 166.82 19.5835 166.092V166.016C19.6005 165.819 19.5648 165.62 19.4799 165.441C19.3951 165.261 19.2642 165.107 19.1005 164.995Z" fill="white"/>
<path d="M15.1901 97.4247L129.581 31.0691C130.23 30.6917 130.753 30.9987 130.753 31.7433V84.2041C130.729 84.6078 130.61 85.0002 130.406 85.3498C130.203 85.6993 129.92 85.9962 129.581 86.2166L15.1901 152.592C14.5461 152.97 14.0178 152.663 14.0178 151.918V99.4372C14.0434 99.0337 14.1626 98.6417 14.3661 98.2924C14.5696 97.9431 14.8517 97.646 15.1901 97.4247Z" fill="#455A64"/>
<path d="M102.497 50.5635C104.061 49.5991 105.374 50.3077 105.425 52.1434C105.397 53.1443 105.135 54.1247 104.658 55.0053C104.181 55.8859 103.504 56.6419 102.681 57.2123C101.117 58.1766 99.8042 57.4681 99.7532 55.6274C99.7803 54.627 100.043 53.6472 100.52 52.7673C100.996 51.8875 101.674 51.1324 102.497 50.5635Z" fill="#C53F3F"/>
<path d="M102.389 54.3377C102.367 54.3515 102.346 54.3547 102.328 54.3475C102.312 54.3363 102.304 54.3177 102.303 54.2917L102.252 52.4321L101.808 53.1252C101.793 53.1505 101.777 53.1686 101.759 53.1796C101.735 53.1948 101.712 53.1929 101.692 53.174L101.487 52.9951C101.476 52.9811 101.47 52.965 101.469 52.9468C101.468 52.9103 101.481 52.8747 101.507 52.84L102.251 51.6696C102.275 51.6362 102.301 51.6106 102.33 51.5927L102.744 51.3345C102.769 51.3194 102.789 51.3161 102.805 51.3247C102.821 51.3333 102.829 51.3519 102.83 51.3806L102.9 53.9199C102.901 53.946 102.894 53.9742 102.879 54.0047C102.864 54.0326 102.844 54.0541 102.82 54.0692L102.389 54.3377Z" fill="#455A64"/>
<path d="M108.886 48.0965L122.639 39.6625C123.02 39.4304 123.332 39.5778 123.343 39.9953C123.334 40.2283 123.269 40.4557 123.153 40.6585C123.038 40.8613 122.876 41.0337 122.681 41.1612L108.927 49.5952C108.551 49.8271 108.235 49.6798 108.224 49.2624C108.237 49.0302 108.303 48.8041 108.418 48.6019C108.533 48.3996 108.693 48.2267 108.886 48.0965Z" fill="#C53F3F"/>
<path d="M108.744 50.7982L118.182 45.0002C118.439 44.8421 118.658 44.9417 118.666 45.2284C118.66 45.3889 118.615 45.5455 118.536 45.6852C118.457 45.8249 118.345 45.9435 118.21 46.0312L108.773 51.8292C108.515 51.9873 108.296 51.8877 108.288 51.601C108.295 51.4405 108.339 51.2839 108.419 51.1442C108.498 51.0045 108.61 50.8859 108.744 50.7982Z" fill="#E0E0E0"/>
<path d="M102.774 60.5467C104.337 59.5873 105.651 60.2959 105.701 62.1316C105.674 63.1325 105.411 64.1129 104.935 64.9935C104.458 65.8741 103.781 66.6302 102.958 67.2005C101.394 68.1598 100.081 67.4513 100.03 65.6156C100.057 64.6147 100.32 63.6342 100.797 62.7536C101.273 61.873 101.95 61.117 102.774 60.5467Z" fill="#C53F3F"/>
<path d="M101.969 64.7596C101.944 64.7747 101.923 64.7787 101.905 64.7714C101.889 64.7629 101.881 64.7442 101.88 64.7156L101.872 64.4382C101.87 64.3601 101.896 64.2791 101.95 64.1952L102.284 63.5819C102.48 63.2743 102.629 63.0374 102.73 62.8711C102.831 62.7048 102.907 62.5635 102.958 62.4471C103.009 62.3307 103.033 62.2347 103.031 62.1592C103.025 61.9535 102.936 61.9043 102.763 62.0117C102.673 62.0681 102.604 62.144 102.557 62.2394C102.51 62.3322 102.48 62.4316 102.468 62.5376C102.456 62.6058 102.419 62.6592 102.357 62.6977L101.942 62.9558C101.923 62.9682 101.906 62.9707 101.892 62.9634C101.878 62.956 101.871 62.9406 101.871 62.9172C101.87 62.7477 101.905 62.5713 101.974 62.3878C102.045 62.2004 102.147 62.0243 102.28 61.8596C102.415 61.6909 102.571 61.5514 102.748 61.4413C102.934 61.3256 103.094 61.2617 103.228 61.2494C103.363 61.2371 103.466 61.2734 103.539 61.3584C103.611 61.4433 103.649 61.5704 103.654 61.7397C103.659 61.922 103.615 62.119 103.522 62.3306C103.431 62.5383 103.289 62.7906 103.097 63.0877L102.802 63.641L103.655 63.1102C103.679 63.0951 103.699 63.0918 103.715 63.1004C103.733 63.1076 103.743 63.1256 103.744 63.1542L103.755 63.5488C103.755 63.5774 103.747 63.6064 103.73 63.6356C103.715 63.6635 103.695 63.685 103.671 63.7002L101.969 64.7596Z" fill="#455A64"/>
<path d="M109.162 58.0797L122.916 49.6456C123.297 49.4136 123.608 49.561 123.62 49.9734C123.61 50.2071 123.545 50.4352 123.43 50.6388C123.315 50.8424 123.153 51.0157 122.957 51.1444L109.204 59.5834C108.828 59.8153 108.512 59.6681 108.5 59.2506C108.513 59.0175 108.579 58.7905 108.694 58.5873C108.809 58.3841 108.969 58.2104 109.162 58.0797Z" fill="#C53F3F"/>
<path d="M109.021 60.7864L118.459 54.9885C118.716 54.8254 118.935 54.93 118.943 55.2117C118.937 55.3721 118.892 55.5288 118.812 55.6684C118.733 55.8081 118.622 55.9268 118.487 56.0145L109.049 61.8124C108.792 61.9705 108.573 61.8659 108.565 61.5842C108.572 61.4246 108.617 61.269 108.697 61.1302C108.776 60.9915 108.887 60.8736 109.021 60.7864Z" fill="#E0E0E0"/>
<path d="M103.05 70.535C104.613 69.5706 105.927 70.2791 105.978 72.1199C105.951 73.1202 105.688 74.1001 105.211 74.9799C104.735 75.8598 104.057 76.6148 103.234 77.1837C101.67 78.1481 100.357 77.4396 100.306 75.6039C100.334 74.603 100.596 73.6225 101.073 72.7419C101.549 71.8613 102.227 71.1053 103.05 70.535Z" fill="#C53F3F"/>
<path d="M103.102 74.254C102.888 74.3876 102.706 74.4607 102.558 74.4735C102.412 74.4848 102.302 74.4552 102.228 74.3847C102.157 74.3102 102.117 74.2157 102.109 74.1012C102.108 74.0778 102.115 74.0541 102.127 74.0302C102.142 74.005 102.16 73.9861 102.18 73.9738L102.615 73.7032C102.639 73.6881 102.659 73.6809 102.675 73.6817C102.69 73.6825 102.705 73.693 102.719 73.7134C102.767 73.8213 102.89 73.814 103.087 73.6915C103.2 73.6213 103.286 73.5369 103.346 73.4385C103.409 73.3361 103.438 73.2314 103.436 73.1247C103.43 72.9163 103.312 72.8837 103.082 73.0269L102.714 73.2561C102.691 73.2699 102.671 73.2732 102.653 73.266C102.637 73.2548 102.629 73.2361 102.628 73.2101L102.622 72.9913C102.62 72.934 102.637 72.8787 102.671 72.8254L103.2 71.9437L102.278 72.5178C102.256 72.5316 102.236 72.5349 102.217 72.5277C102.201 72.5165 102.193 72.4978 102.192 72.4718L102.182 72.1046C102.181 72.0759 102.188 72.0477 102.203 72.0198C102.221 71.9905 102.24 71.969 102.262 71.9553L103.789 71.0053C103.813 70.9902 103.833 70.9869 103.849 70.9955C103.867 71.0027 103.877 71.0206 103.878 71.0493L103.887 71.3814C103.888 71.4309 103.872 71.4848 103.837 71.5433L103.348 72.4081L103.372 72.4014C103.576 72.306 103.739 72.2869 103.859 72.3442C103.982 72.3975 104.047 72.5439 104.054 72.7835C104.059 72.958 104.021 73.1365 103.94 73.3191C103.86 73.5016 103.747 73.6742 103.6 73.8367C103.454 73.9993 103.288 74.1384 103.102 74.254Z" fill="#455A64"/>
<path d="M109.439 68.0679L123.192 59.6037C123.573 59.3717 123.884 59.5241 123.896 59.9365C123.886 60.1702 123.821 60.3981 123.706 60.6016C123.591 60.8052 123.429 60.9785 123.234 61.1075L109.481 69.5717C109.105 69.8036 108.789 69.6513 108.777 69.2389C108.79 69.0058 108.856 68.7787 108.971 68.5756C109.085 68.3724 109.246 68.1986 109.439 68.0679Z" fill="#C53F3F"/>
<path d="M109.298 70.7746L118.735 64.9767C118.993 64.8186 119.212 64.9232 119.22 65.2049C119.213 65.3654 119.169 65.522 119.089 65.6617C119.01 65.8013 118.898 65.92 118.764 66.0077L109.326 71.8056C109.069 71.9688 108.85 71.8641 108.842 71.5825C108.848 71.4211 108.892 71.2635 108.971 71.1229C109.05 70.9823 109.162 70.8628 109.298 70.7746Z" fill="#E0E0E0"/>
<path d="M53.2229 110.408C50.3511 110.756 42.6235 111.032 42.6235 111.032C37.5255 108.793 33.5407 103.882 33.0351 98.3469L32.8142 95.9636C32.3894 91.4434 35.6393 87.2249 39.9683 85.8655C41.2374 85.453 42.5831 85.3316 43.9056 85.5104C45.2281 85.6891 46.4933 86.1634 47.6074 86.8979C48.7215 87.6325 49.6559 88.6085 50.3412 89.7536C51.0265 90.8987 51.4451 92.1834 51.5661 93.5124C51.6723 94.6849 51.9909 95.7214 52.9383 96.4861C53.4678 96.8651 54.0377 97.1842 54.6376 97.4377C55.4998 97.8161 56.2847 98.3504 56.9529 99.0139C57.2839 99.3481 57.5426 99.7469 57.7129 100.185C57.8832 100.624 57.9614 101.093 57.9427 101.563C57.8753 102.167 57.6382 102.74 57.2587 103.215C57.1865 103.285 57.1439 103.379 57.1398 103.479C57.155 103.549 57.1888 103.613 57.2375 103.666C58.1169 104.792 58.5799 106.346 58.0532 107.672C57.6864 108.503 57.0421 109.18 56.2307 109.588C55.4202 109.991 54.5465 110.251 53.6477 110.357L53.2229 110.408Z" fill="#263238"/>
<path d="M78.075 102.396C77.9252 102.19 77.7527 102.002 77.5609 101.835C77.2253 101.525 76.7623 101.24 76.3332 101.41C76.0813 101.534 75.8737 101.733 75.7384 101.979C75.4665 102.379 75.1437 102.748 74.8888 103.16C74.54 103.762 74.1376 104.33 73.6865 104.86C73.4953 105.089 73.2192 105.403 72.8921 105.306C72.8335 105.289 72.7806 105.257 72.7392 105.212C72.7037 105.165 72.6804 105.109 72.6712 105.051C72.6311 104.767 72.647 104.478 72.7179 104.201C72.7865 103.922 72.7865 103.63 72.7179 103.351C72.6791 103.214 72.5967 103.094 72.4833 103.008C72.3698 102.922 72.2315 102.876 72.0892 102.876C72.0098 102.88 71.9353 102.915 71.881 102.973C71.8439 103.014 71.815 103.062 71.796 103.113C71.2403 104.214 70.8359 105.384 70.5938 106.593C70.5386 107.128 70.442 107.657 70.3049 108.177C69.9438 109.299 68.6311 109.877 67.7092 110.527C65.7019 111.849 63.6289 113.068 61.4982 114.18C60.4532 113.263 53.8514 107.502 52.0289 105.981C49.4034 103.797 46.6166 104.775 46.2385 104.804C45.8604 104.834 45.3591 107.353 48.4476 111.007C48.4476 111.007 58.0784 119.155 59.9179 120.213C60.3724 120.472 60.9884 121.011 61.7319 120.982H61.7574H61.8508C61.9506 120.973 62.0489 120.953 62.144 120.922C63.0574 120.629 64.3616 119.499 64.9096 119.074C67.6711 116.852 70.317 114.49 72.8369 111.997C73.5548 111.3 74.3705 110.722 75.1479 110.089C76.1693 109.314 77.0343 108.353 77.6969 107.256C78.2024 106.484 78.5103 105.6 78.5933 104.681C78.6875 103.882 78.5046 103.075 78.075 102.396Z" fill="#FFA8A7"/>
<path d="M35.9872 124.499C33.7143 129.597 33.1621 132.571 32.9836 135.345C32.8052 138.119 33.0686 142.316 33.0686 142.316L53.1332 130.748C52.6869 127.922 52.0279 125.132 51.162 122.405L35.9872 124.499Z" fill="#C53F3F"/>
<path d="M51.1919 116.1L51.073 121.36C51.3364 122.392 51.7569 124.079 52.2285 125.608C51.9311 126.538 49.7348 129.041 45.0702 130.591C40.1422 132.231 34.5217 130.54 33.8972 129.317L35.8514 124.368C35.8514 124.368 34.1521 117.804 34.1266 117.723C34.1011 117.643 35.9491 114.975 36.0723 111.776C36.1955 108.577 35.3119 107.205 35.0315 106.899C35.159 106.843 38.035 106.049 38.035 106.049L43.7702 104.902L46.4678 104.728C48.7152 105.879 50.5356 107.719 51.6635 109.979C52.1849 110.935 52.4179 112.023 52.3342 113.109C52.2505 114.196 51.8538 115.235 51.1919 116.1Z" fill="#FAFAFA"/>
<path d="M47.9294 89.7101C48.5284 90.3219 49.7391 91.7876 49.6287 97.1021C49.514 101.61 48.0526 102.718 47.3176 103.05C46.5827 103.381 45.168 103.169 43.7958 102.939V105.136C43.7958 105.136 45.7415 106.491 46.23 107.719C46.6124 108.674 44.1824 110.008 40.4949 108.42C38.9867 107.77 37.7717 106.117 37.7717 106.117L37.8185 99.6086C37.8185 99.6086 37.0071 100.39 35.6391 99.1838C34.5091 98.1939 34.131 96.5201 35.0146 95.628C35.2442 95.4157 35.5209 95.261 35.8219 95.1765C36.1229 95.092 36.4397 95.0802 36.7462 95.142C37.0527 95.2038 37.3401 95.3374 37.5849 95.532C37.8296 95.7265 38.0247 95.9764 38.1541 96.261C40.0438 96.2901 41.9062 95.8086 43.5451 94.8675C46.4467 93.2617 47.7339 91.4604 47.9294 89.7101Z" fill="#FFA8A7"/>
<path d="M44.5136 96.2907C44.5143 96.4014 44.4824 96.5098 44.4221 96.6025C44.3617 96.6952 44.2755 96.7681 44.174 96.8123C44.0726 96.8564 43.9604 96.8698 43.8514 96.8508C43.7424 96.8318 43.6414 96.7812 43.561 96.7053C43.4805 96.6294 43.424 96.5316 43.3986 96.4239C43.3732 96.3162 43.38 96.2034 43.4181 96.0996C43.4562 95.9957 43.524 95.9053 43.613 95.8396C43.702 95.7739 43.8083 95.7358 43.9188 95.73C43.9947 95.7277 44.0703 95.7404 44.1412 95.7674C44.2122 95.7943 44.2772 95.835 44.3324 95.8871C44.3876 95.9392 44.4321 96.0016 44.4632 96.0709C44.4942 96.1401 44.5114 96.2149 44.5136 96.2907Z" fill="#263238"/>
<path d="M44.0805 99.6299L46.2046 100.016C46.1855 100.158 46.1382 100.294 46.0654 100.417C45.9925 100.539 45.8957 100.646 45.7808 100.731C45.6658 100.815 45.5349 100.875 45.3961 100.908C45.2572 100.941 45.1132 100.945 44.9726 100.921C44.6855 100.864 44.4321 100.697 44.2657 100.456C44.0993 100.215 44.0329 99.9188 44.0805 99.6299Z" fill="#B16668"/>
<path d="M44.9767 100.921C45.1168 100.951 45.2614 100.951 45.4015 100.921C45.3906 100.683 45.2884 100.458 45.116 100.292C44.9436 100.127 44.7142 100.034 44.4754 100.033C44.3468 100.032 44.2193 100.058 44.1016 100.11C44.1558 100.314 44.2668 100.499 44.4217 100.642C44.5766 100.786 44.769 100.883 44.9767 100.921Z" fill="#F28F8F"/>
<path d="M49.0169 94.4724L47.7424 93.9499C47.7721 93.8641 47.8189 93.7852 47.8801 93.7182C47.9412 93.6511 48.0155 93.5972 48.0982 93.5598C48.1809 93.5224 48.2704 93.5023 48.3612 93.5007C48.4519 93.4992 48.5421 93.5161 48.6261 93.5506C48.7963 93.6256 48.9316 93.7627 49.0042 93.934C49.0768 94.1053 49.0814 94.2979 49.0169 94.4724Z" fill="#263238"/>
<path d="M48.7194 95.8744C48.7192 95.9848 48.6867 96.0928 48.6259 96.185C48.565 96.2771 48.4784 96.3494 48.3769 96.3929C48.2754 96.4365 48.1633 96.4492 48.0546 96.4297C47.9459 96.4102 47.8453 96.3593 47.7652 96.2832C47.6851 96.2072 47.6291 96.1093 47.6041 96.0017C47.579 95.8941 47.5861 95.7816 47.6243 95.678C47.6625 95.5743 47.7303 95.4842 47.8192 95.4187C47.9082 95.3532 48.0143 95.3152 48.1246 95.3094C48.2783 95.3059 48.4271 95.3634 48.5385 95.4693C48.6499 95.5751 48.7149 95.7208 48.7194 95.8744Z" fill="#263238"/>
<path d="M46.0642 95.645L46.4551 98.9416L48.1544 98.1344L46.0642 95.645Z" fill="#F28F8F"/>
<path d="M43.7745 102.927C42.3259 102.731 39.3478 101.869 38.8848 100.688C39.0689 101.285 39.4323 101.812 39.9256 102.196C40.8135 102.961 43.7703 103.827 43.7703 103.827L43.7745 102.927Z" fill="#F28F8F"/>
<path d="M37.9288 97.9008C38.2995 97.8692 38.6425 97.6917 38.8823 97.4073C39.1221 97.1229 39.2391 96.7548 39.2075 96.3841C39.176 96.0134 38.9985 95.6705 38.7141 95.4307C38.4296 95.1909 38.0616 95.0739 37.6909 95.1054L37.9288 97.9008Z" fill="#263238"/>
<path d="M23.4847 127.239C24.1092 130.982 25.4772 134.461 29.581 141.433C30.0499 142.285 30.6206 143.076 31.2803 143.791C31.9728 144.54 32.8132 145.137 33.7486 145.545C34.2948 145.774 34.9017 145.814 35.4734 145.66C36.5864 145.392 37.5338 144.53 37.6187 143.999C37.7334 143.285 36.4547 142.563 35.9534 142.045C35.5286 141.62 34.6789 140.902 34.3943 140.511C34.1097 140.12 33.7868 139.806 34.1436 139.818C34.3603 139.818 34.5685 139.899 34.7766 139.925C34.9547 139.942 35.1339 139.942 35.3119 139.925C35.4906 139.937 35.6698 139.911 35.8371 139.847C36.0045 139.783 36.1558 139.684 36.2805 139.555C36.3334 139.49 36.366 139.412 36.3743 139.328C36.3826 139.245 36.3663 139.162 36.3273 139.088C36.2452 138.986 36.1363 138.91 36.0129 138.867C35.6201 138.718 35.2383 138.542 34.8701 138.34C34.5036 138.13 34.1503 137.897 33.8123 137.643C33.294 137.219 32.5888 136.76 32.2702 136.169C31.473 134.741 30.8674 133.214 30.4689 131.628C30.18 130.523 29.6192 128.403 29.3304 126.394C29.4238 126.139 30.7195 123.756 31.5565 122.371C32.7587 120.378 33.9057 118.671 35.0145 116.895C37.3553 114.04 37.1387 108.598 35.0655 106.903C31.4205 107.838 30.3712 109.405 29.1689 111.729C27.9964 113.989 24.8442 120.293 23.8034 123.407C23.3827 124.639 23.2733 125.955 23.4847 127.239Z" fill="#FFA8A7"/>
<path opacity="0.3" d="M28.3316 139.034L113.204 90.2361C113.749 89.92 114.2 90.1492 114.2 90.7419C114.174 91.0757 114.07 91.3989 113.898 91.6856C113.725 91.9724 113.487 92.2148 113.204 92.3935L28.3316 141.191C27.7785 141.507 27.3359 141.278 27.3359 140.685C27.36 140.351 27.4627 140.027 27.6357 139.74C27.8088 139.453 28.0472 139.211 28.3316 139.034Z" fill="white"/>
<path d="M28.3316 139.034L104.851 95.0566C105.404 94.7405 105.847 94.9697 105.847 95.5624C105.823 95.8967 105.72 96.2206 105.547 96.5076C105.374 96.7947 105.136 97.0367 104.851 97.214L28.3316 141.191C27.7785 141.507 27.3359 141.278 27.3359 140.685C27.36 140.351 27.4627 140.027 27.6357 139.74C27.8088 139.453 28.0472 139.211 28.3316 139.034Z" fill="white"/>
<path d="M17.9476 145.15V147.268C17.9456 147.321 17.9308 147.372 17.9047 147.417C17.8785 147.462 17.8417 147.501 17.7975 147.529L17.3866 147.766C17.3717 147.777 17.354 147.783 17.3357 147.784C17.3173 147.785 17.2991 147.781 17.2832 147.771C17.2672 147.762 17.2544 147.749 17.2461 147.732C17.2378 147.716 17.2344 147.697 17.2364 147.679V145.561C17.2403 145.509 17.2558 145.459 17.2818 145.414C17.3078 145.369 17.3436 145.33 17.3866 145.3L17.7975 145.063C17.8844 145.016 17.9476 145.055 17.9476 145.15Z" fill="white"/>
<path d="M19.3704 144.328V146.446C19.3683 146.499 19.3536 146.55 19.3274 146.595C19.3013 146.641 19.2645 146.679 19.2203 146.707L18.8172 146.944C18.7303 146.992 18.6592 146.944 18.6592 146.857V144.739C18.6628 144.686 18.679 144.635 18.7065 144.59C18.734 144.544 18.772 144.506 18.8172 144.479L19.2203 144.242C19.3072 144.194 19.3704 144.234 19.3704 144.328Z" fill="white"/>
<path d="M25.0284 141.128V143.246C25.0245 143.298 25.009 143.348 24.983 143.393C24.957 143.438 24.9212 143.477 24.8783 143.507L24.6965 143.617C24.6096 143.665 24.5464 143.617 24.5464 143.53V141.412C24.5485 141.36 24.5632 141.309 24.5894 141.264C24.6155 141.218 24.6523 141.18 24.6965 141.152L24.8783 141.041C24.8931 141.03 24.9108 141.024 24.9292 141.023C24.9475 141.022 24.9658 141.026 24.9817 141.036C24.9976 141.045 25.0105 141.058 25.0188 141.075C25.0271 141.091 25.0304 141.11 25.0284 141.128Z" fill="white"/>
<path d="M22.041 142.772V144.85C22.041 145 22.12 145.032 22.2228 144.913L24.1352 142.709C24.2379 142.59 24.1905 142.495 24.0403 142.495H22.3176C22.2442 142.495 22.1739 142.524 22.122 142.576C22.0702 142.628 22.041 142.698 22.041 142.772Z" fill="white"/>
<path d="M124.141 84.3014C124.076 84.3014 124.014 84.2755 123.968 84.2296C123.922 84.1837 123.896 84.1214 123.896 84.0564V83.361C123.896 83.3193 123.907 83.2784 123.928 83.2423C123.949 83.2063 123.978 83.1763 124.015 83.1555L125.145 82.5075C125.171 82.4908 125.201 82.4798 125.232 82.4751C125.263 82.4705 125.295 82.4723 125.326 82.4805C125.356 82.4886 125.384 82.5029 125.409 82.5226C125.434 82.5422 125.454 82.5666 125.469 82.5944C125.498 82.6494 125.505 82.7134 125.489 82.7736C125.473 82.8338 125.435 82.8856 125.382 82.9184L124.378 83.4953V84.0564C124.378 84.12 124.353 84.1812 124.309 84.2269C124.265 84.2726 124.205 84.2993 124.141 84.3014Z" fill="#FAFAFA"/>
<path d="M129.262 81.3458C129.199 81.3458 129.139 81.3209 129.094 81.2764C129.05 81.2319 129.025 81.1716 129.025 81.1087V80.8164L128.235 81.2589C128.208 81.2745 128.178 81.2846 128.147 81.2887C128.116 81.2927 128.085 81.2907 128.055 81.2826C128.025 81.2745 127.996 81.2606 127.972 81.2416C127.947 81.2226 127.926 81.199 127.911 81.172C127.894 81.1453 127.883 81.1155 127.878 81.0843C127.874 81.0532 127.875 81.0214 127.884 80.991C127.892 80.9607 127.906 80.9323 127.926 80.9076C127.945 80.883 127.97 80.8627 127.998 80.848L129.12 80.2C129.155 80.1765 129.196 80.164 129.238 80.164C129.28 80.164 129.322 80.1765 129.357 80.2C129.394 80.2194 129.425 80.2491 129.446 80.2855C129.467 80.3219 129.477 80.3635 129.475 80.4054V81.1087C129.476 81.1677 129.454 81.2247 129.414 81.2685C129.375 81.3124 129.321 81.3399 129.262 81.3458Z" fill="#FAFAFA"/>
<path d="M124.141 87.4861C124.102 87.4952 124.061 87.4952 124.022 87.4861C123.985 87.4657 123.954 87.436 123.932 87.4C123.91 87.364 123.898 87.3229 123.896 87.2806V86.5773C123.906 86.5209 123.936 86.4698 123.98 86.4331C124.024 86.3963 124.08 86.3762 124.137 86.3762C124.194 86.3762 124.25 86.3963 124.294 86.4331C124.338 86.4698 124.368 86.5209 124.378 86.5773V86.8065L125.168 86.364C125.223 86.3345 125.287 86.3271 125.348 86.3433C125.408 86.3594 125.459 86.3979 125.492 86.4509C125.522 86.507 125.53 86.5723 125.514 86.6338C125.498 86.6953 125.459 86.7485 125.405 86.7828L124.283 87.4308C124.241 87.46 124.192 87.479 124.141 87.4861Z" fill="#FAFAFA"/>
<path d="M128.14 85.1785C128.087 85.1786 128.037 85.1614 127.995 85.1296C127.954 85.0978 127.924 85.0532 127.91 85.0028C127.897 84.9523 127.9 84.8988 127.92 84.8506C127.94 84.8023 127.976 84.762 128.021 84.736L129.025 84.1512V83.5901C129.025 83.5272 129.05 83.4669 129.094 83.4225C129.139 83.378 129.199 83.353 129.262 83.353C129.325 83.353 129.385 83.378 129.429 83.4225C129.474 83.4669 129.499 83.5272 129.499 83.5901V84.2934C129.501 84.3354 129.49 84.377 129.47 84.4134C129.449 84.4498 129.418 84.4794 129.38 84.4989L128.258 85.1469C128.222 85.1684 128.181 85.1794 128.14 85.1785Z" fill="#FAFAFA"/>
<path d="M121.565 86.8697H121.525H121.067C121.057 86.8708 121.047 86.8698 121.037 86.8667C121.028 86.8636 121.019 86.8585 121.011 86.8518C121.004 86.8451 120.998 86.8369 120.994 86.8277C120.99 86.8185 120.988 86.8086 120.988 86.7985C120.992 86.7275 120.992 86.6562 120.988 86.5852C120.988 86.5061 120.988 86.4271 120.988 86.356C120.986 86.3069 121.003 86.259 121.035 86.2216L121.541 85.6053C121.551 85.5858 121.557 85.5641 121.557 85.542C121.557 85.52 121.551 85.4983 121.541 85.4788L121.304 84.9415C121.304 84.9415 121.256 84.9415 121.233 84.9415L120.687 85.4393C120.669 85.4522 120.647 85.4591 120.624 85.4591C120.602 85.4591 120.58 85.4522 120.561 85.4393C120.494 85.3808 120.416 85.3353 120.332 85.305C120.313 85.2979 120.297 85.2847 120.287 85.2674C120.277 85.2501 120.273 85.2299 120.277 85.2101L120.443 84.4199C120.443 84.4199 120.443 84.3804 120.443 84.3646H120.395L119.858 84.4199C119.834 84.4234 119.812 84.4324 119.793 84.4462C119.774 84.4599 119.758 84.478 119.747 84.4989L119.455 85.2892C119.432 85.3427 119.39 85.3853 119.336 85.4077C119.222 85.4607 119.114 85.5242 119.012 85.5974C118.965 85.5974 118.917 85.5974 118.894 85.5974L118.625 85.1864C118.625 85.1864 118.562 85.1864 118.522 85.1864L117.937 85.8028C117.905 85.8397 117.888 85.8879 117.89 85.9372L118.056 86.4903C118.07 86.5313 118.07 86.5758 118.056 86.6168C117.961 86.7748 117.866 86.925 117.787 87.0909C117.758 87.1365 117.713 87.1701 117.661 87.1857L117.163 87.3043C117.137 87.3095 117.113 87.3209 117.092 87.3374C117.072 87.3538 117.055 87.375 117.044 87.3991L116.792 88.2447C116.789 88.2542 116.789 88.2641 116.791 88.2737C116.793 88.2833 116.797 88.2923 116.803 88.3C116.81 88.3077 116.817 88.3138 116.826 88.3179C116.835 88.322 116.845 88.324 116.855 88.3237H117.313C117.334 88.3237 117.354 88.332 117.369 88.3469C117.384 88.3617 117.392 88.3818 117.392 88.4027C117.376 88.5472 117.376 88.6929 117.392 88.8374C117.392 88.8863 117.375 88.9337 117.345 88.9717L116.831 89.596C116.821 89.6155 116.815 89.6372 116.815 89.6592C116.815 89.6813 116.821 89.703 116.831 89.7224L117.076 90.2598C117.076 90.2598 117.116 90.2598 117.139 90.2598L117.685 89.762C117.701 89.7485 117.722 89.7411 117.744 89.7411C117.765 89.7411 117.786 89.7485 117.803 89.762C117.873 89.8195 117.95 89.8673 118.032 89.9042C118.052 89.9098 118.069 89.9228 118.079 89.9404C118.089 89.9581 118.092 89.9791 118.088 89.999L117.922 90.7893C117.922 90.7893 117.922 90.8288 117.922 90.8446H117.969L118.506 90.7893C118.531 90.7877 118.555 90.7795 118.576 90.7657C118.597 90.7518 118.614 90.7327 118.625 90.7102L118.909 89.92C118.937 89.8718 118.978 89.8332 119.028 89.8094L119.194 89.7145L119.36 89.6197C119.36 89.6197 119.455 89.5802 119.47 89.6197L119.747 90.0385C119.76 90.0462 119.775 90.0502 119.791 90.0502C119.806 90.0502 119.821 90.0462 119.834 90.0385L120.419 89.4221C120.436 89.4062 120.449 89.3865 120.458 89.3646C120.466 89.3426 120.469 89.319 120.466 89.2957L120.3 88.7425C120.286 88.6988 120.286 88.6519 120.3 88.6082C120.4 88.4591 120.49 88.3033 120.569 88.1419C120.598 88.0959 120.643 88.0621 120.695 88.0471L121.201 87.9286C121.249 87.9286 121.304 87.8733 121.312 87.8338L121.565 86.9803C121.579 86.9803 121.593 86.9745 121.604 86.9641C121.614 86.9537 121.62 86.9396 121.62 86.925C121.62 86.9103 121.614 86.8962 121.604 86.8859C121.593 86.8755 121.579 86.8697 121.565 86.8697ZM118.886 88.9401H118.688C118.58 88.9392 118.474 88.9065 118.384 88.8461C118.294 88.7857 118.224 88.7002 118.182 88.6003C118.143 88.5128 118.119 88.4193 118.111 88.3237C118.107 88.2711 118.107 88.2183 118.111 88.1657C118.141 87.5976 118.374 87.0591 118.767 86.6484C118.885 86.5216 119.021 86.4125 119.17 86.3244L119.305 86.2533C119.424 86.1992 119.553 86.1722 119.684 86.1742H119.747C119.84 86.1866 119.929 86.224 120.002 86.2825C120.076 86.3409 120.133 86.4182 120.166 86.5061C120.25 86.8522 120.241 87.2145 120.14 87.556C120.038 87.8975 119.848 88.206 119.589 88.4501C119.408 88.6787 119.163 88.849 118.886 88.9401Z" fill="white"/>
</g>
<defs>
<filter id="filter0_d" x="0.743896" y="0" width="132.977" height="185.779" filterUnits="userSpaceOnUse" color-interpolation-filters="sRGB">
<feFlood flood-opacity="0" result="BackgroundImageFix"/>
<feColorMatrix in="SourceAlpha" type="matrix" values="0 0 0 0 0 0 0 0 0 0 0 0 0 0 0 0 0 0 127 0" result="hardAlpha"/>
<feOffset dx="-3" dy="4"/>
<feGaussianBlur stdDeviation="2"/>
<feComposite in2="hardAlpha" operator="out"/>
<feColorMatrix type="matrix" values="0 0 0 0 1 0 0 0 0 0.266667 0 0 0 0 0.266667 0 0 0 0.1 0"/>
<feBlend mode="normal" in2="BackgroundImageFix" result="effect1_dropShadow"/>
<feBlend mode="normal" in="SourceGraphic" in2="effect1_dropShadow" result="shape"/>
</filter>
</defs>
</svg>
