<svg width="129" height="178" viewBox="0 0 129 178" fill="none" xmlns="http://www.w3.org/2000/svg">
<path d="M4.2514 177.483C3.97136 177.648 3.65544 177.743 3.33068 177.759C2.86763 177.82 2.39713 177.737 1.98231 177.523C1.65316 177.298 1.38208 176.999 1.19139 176.649C1.00071 176.299 0.895861 175.909 0.885498 175.51V85.6523L3.09421 86.9252V176.803C3.09421 177.337 3.36087 177.644 3.74325 177.644C3.92261 177.629 4.09634 177.574 4.2514 177.483Z" fill="#F0F0F0"/>
<path d="M125.178 9.44903V105.999C125.155 106.31 125.063 106.612 124.907 106.882C124.751 107.152 124.535 107.383 124.277 107.558L3.98003 177.015C3.9056 177.062 3.8212 177.091 3.7335 177.1C3.62282 177.1 3.62282 176.818 3.62282 176.803V79.6399L6.58119 77.9293C7.04909 77.6576 7.34091 76.747 8 74.4074C8.23523 73.4049 8.55849 72.425 8.966 71.4793L36.6882 55.4749C37.0169 55.9197 37.3113 56.389 37.5686 56.8786C38.3233 58.2068 38.7459 58.8911 39.3598 58.8911C39.4858 58.8911 39.6094 58.8563 39.717 58.7905L125.178 9.44903ZM125.721 8.51322L39.4453 58.3226C39.4195 58.3384 39.39 58.347 39.3598 58.3477C38.7057 58.3477 37.3473 54.8258 36.7133 54.8258C36.6853 54.8184 36.6558 54.8184 36.6278 54.8258L8.65406 70.9761C8.00503 71.3535 6.9535 77.0136 6.3095 77.4111L3.08447 79.333V176.803C3.08447 177.337 3.3461 177.644 3.7335 177.644C3.91256 177.636 4.08625 177.58 4.23663 177.483L124.549 108.011C124.888 107.791 125.171 107.494 125.374 107.144C125.578 106.795 125.697 106.402 125.721 105.999V8.51322Z" fill="#E0E0E0"/>
<path d="M1.98368 82.9306C1.6536 82.7066 1.38155 82.4072 1.18996 82.0573C0.99838 81.7074 0.892764 81.3169 0.881836 80.9181V71.7864C0.904931 71.3841 1.02155 70.9927 1.22244 70.6433C1.42332 70.294 1.70292 69.9963 2.03902 69.7739L122.336 0.342721C122.675 0.128191 123.065 0.0104842 123.466 0.00237907C123.867 -0.00572608 124.262 0.0960793 124.609 0.296745C124.956 0.49741 125.241 0.789268 125.434 1.14063C125.626 1.49199 125.719 1.88944 125.702 2.28981V11.4115C125.678 11.8154 125.56 12.2081 125.356 12.5578C125.153 12.9074 124.869 13.2042 124.53 13.424L4.25277 82.8904C3.90416 83.0744 3.51717 83.1739 3.12302 83.1809C2.72888 83.1879 2.3386 83.1022 1.98368 82.9306Z" fill="#C53F3F"/>
<path opacity="0.4" d="M125.706 2.05808C125.625 1.4493 125.132 1.22792 124.549 1.55495L4.25171 71.0264C3.90838 71.249 3.62365 71.551 3.42156 71.9069L1.2229 70.6339C1.41993 70.2847 1.69984 69.9892 2.03796 69.7736L122.335 0.342422C122.659 0.135857 123.032 0.0184292 123.416 0.00199799C123.799 -0.0144332 124.181 0.0707141 124.521 0.248841C124.862 0.426967 125.149 0.691766 125.355 1.0165C125.56 1.34123 125.676 1.7144 125.691 2.09833L125.706 2.05808Z" fill="white"/>
<path opacity="0.1" d="M3.42147 71.9069C3.21229 72.2558 3.09622 72.6525 3.08438 73.0591V86.9504L0.875663 85.6775V71.7862C0.873152 71.7393 0.873152 71.6922 0.875663 71.6453C0.884675 71.5472 0.899796 71.4497 0.920942 71.3535C0.983917 71.0996 1.08214 70.8557 1.21276 70.629L3.42147 71.9069Z" fill="black"/>
<path d="M125.716 2.24416V8.5131L39.4403 58.3224C38.7963 58.6998 38.273 58.3929 38.273 57.6482V55.2735C38.273 54.5289 37.7699 54.222 37.0957 54.5993L8.64903 71.0213C8.31013 71.242 8.02759 71.5389 7.82403 71.8884C7.62047 72.2379 7.50153 72.6301 7.47675 73.0338V75.4035C7.45119 75.807 7.33193 76.199 7.12844 76.5483C6.92494 76.8976 6.64283 77.1947 6.30447 77.416L3.08447 79.3329V73.0589C3.10947 72.6559 3.22796 72.2642 3.43056 71.9149C3.63316 71.5656 3.9143 71.2683 4.25172 71.0464L124.549 1.61526C125.193 1.19263 125.716 1.49954 125.716 2.24416Z" fill="#C53F3F"/>
<path d="M120.222 6.1737C121.037 5.70579 121.696 6.08817 121.696 7.02901C121.668 7.54084 121.52 8.03892 121.264 8.48295C121.008 8.92697 120.651 9.30447 120.222 9.58488C119.407 10.0528 118.743 9.67041 118.743 8.72957C118.772 8.21739 118.921 7.71917 119.178 7.27517C119.435 6.83117 119.792 6.45385 120.222 6.1737Z" fill="white"/>
<path d="M114.909 9.23767C115.724 8.76976 116.383 9.1471 116.383 10.0879C116.356 10.6 116.208 11.0983 115.952 11.5425C115.696 11.9866 115.338 12.364 114.909 12.6438C114.094 13.1168 113.435 12.7344 113.435 11.7935C113.462 11.2817 113.61 10.7836 113.866 10.3396C114.123 9.89558 114.48 9.51808 114.909 9.23767Z" fill="white"/>
<path d="M109.596 12.3018C110.411 11.8289 111.07 12.2112 111.07 13.1521C111.042 13.6639 110.894 14.162 110.638 14.606C110.382 15.0501 110.025 15.4275 109.596 15.708C108.781 16.1759 108.122 15.7985 108.122 14.8577C108.149 14.3457 108.296 13.8473 108.552 13.4031C108.809 12.959 109.166 12.5816 109.596 12.3018Z" fill="white"/>
<path d="M125.721 8.51322V16.1356L3.08447 86.9503V79.333L5.49444 77.9394C6.13844 77.5671 6.35478 76.9985 6.66169 75.9269L7.48178 73.0892C7.73837 72.083 7.98491 71.434 8.65406 71.0768L36.6278 54.9265C37.2768 54.5541 37.785 54.5139 38.278 55.329L39.2843 57.1503C39.6516 57.7842 39.8377 58.1565 40.4817 57.7842L125.721 8.51322Z" fill="#E6E6E6"/>
<path d="M3.0842 79.3229V86.9503L0.875488 85.6774V78.0601L3.0842 79.3229Z" fill="#E0E0E0"/>
<path d="M8.46288 79.8764L6.62145 80.938L7.32079 79.5896C7.34899 79.5388 7.36378 79.4817 7.36378 79.4236C7.36378 79.3655 7.34899 79.3084 7.32079 79.2576C7.26545 79.1922 7.17489 79.2576 7.10948 79.3582L6.10323 81.2751C6.10323 81.2751 6.10323 81.3204 6.07808 81.3455C6.05292 81.3707 6.07808 81.3455 6.07808 81.3455C6.07561 81.3774 6.07561 81.4093 6.07808 81.4411C6.0747 81.4695 6.0747 81.4983 6.07808 81.5267C6.08531 81.5408 6.09373 81.5542 6.10323 81.5669L7.10948 82.3317C7.12376 82.3431 7.1415 82.3493 7.15979 82.3493C7.17808 82.3493 7.19583 82.3431 7.21011 82.3317C7.2616 82.2983 7.30054 82.2487 7.32079 82.1908C7.37614 82.065 7.36607 81.9241 7.32079 81.8788L6.62145 81.3355L8.46288 80.2739C8.50961 80.2367 8.54709 80.1891 8.57241 80.135C8.59772 80.0809 8.61017 80.0217 8.60879 79.9619C8.60879 79.8915 8.54338 79.8362 8.46288 79.8764Z" fill="#455A64"/>
<path d="M9.99722 78.9858L11.8387 77.9242L11.1343 77.3859C11.1043 77.3385 11.0884 77.2835 11.0884 77.2274C11.0884 77.1713 11.1043 77.1164 11.1343 77.0689C11.1846 76.9431 11.2802 76.8828 11.3406 76.928L12.3468 77.6978C12.3605 77.7081 12.3709 77.7221 12.377 77.7381C12.3822 77.7664 12.3822 77.7953 12.377 77.8236C12.3819 77.857 12.3819 77.8909 12.377 77.9242L12.3468 77.9997L11.3406 79.9216C11.3212 79.9677 11.2877 80.0065 11.245 80.0323C11.23 80.0465 11.2102 80.0544 11.1896 80.0544C11.169 80.0544 11.1492 80.0465 11.1343 80.0323C11.1056 79.9826 11.0905 79.9262 11.0905 79.8688C11.0905 79.8114 11.1056 79.755 11.1343 79.7053L11.8387 78.3569L9.99722 79.4185C9.91673 79.4638 9.85132 79.4185 9.85132 79.2776C9.85361 79.2214 9.8678 79.1664 9.89295 79.1161C9.9181 79.0658 9.95364 79.0214 9.99722 78.9858Z" fill="#455A64"/>
<path d="M16.0347 73.6879C16.0347 73.5772 15.9291 73.5873 15.8788 73.6879L15.6272 74.3068C15.1945 74.2615 14.6763 74.6791 14.3241 75.4237C13.8663 76.3897 13.8663 77.5318 14.3241 77.9695C14.4343 78.0725 14.577 78.1339 14.7276 78.143C14.8782 78.1522 15.0273 78.1087 15.1492 78.0198C15.5175 77.7718 15.8059 77.4223 15.9794 77.0136C16.0072 76.9645 16.0218 76.909 16.0218 76.8526C16.0218 76.7962 16.0072 76.7407 15.9794 76.6916C15.919 76.6362 15.8284 76.6916 15.7681 76.8123C15.4259 77.5318 14.8725 77.8538 14.5354 77.5268C14.1983 77.1997 14.1933 76.3444 14.5354 75.625C14.7769 75.1218 15.1241 74.8099 15.4259 74.7898L15.2398 75.2577C15.1895 75.3784 15.2398 75.4891 15.3102 75.4388L16.0599 74.9357C16.0907 74.9128 16.1149 74.882 16.1299 74.8467C16.145 74.8113 16.1503 74.7725 16.1454 74.7344L16.0347 73.6879Z" fill="#455A64"/>
<path d="M35.8177 58.3578L36.4918 56.939C36.5297 56.8714 36.5496 56.7951 36.5496 56.7176C36.5496 56.6401 36.5297 56.5639 36.4918 56.4962C36.4113 56.4208 36.2805 56.4962 36.2051 56.6623L35.5309 58.0811L34.8617 57.4371C34.7812 57.3616 34.6554 57.4371 34.5749 57.6031C34.5345 57.6699 34.5132 57.7464 34.5132 57.8245C34.5132 57.9025 34.5345 57.9791 34.5749 58.0459L35.2441 58.705L34.5749 60.1238C34.5345 60.1905 34.5132 60.2671 34.5132 60.3451C34.5132 60.4232 34.5345 60.4997 34.5749 60.5665C34.5943 60.5838 34.6194 60.5934 34.6454 60.5934C34.6714 60.5934 34.6964 60.5838 34.7158 60.5665C34.7815 60.5243 34.8325 60.4628 34.8617 60.3904L35.5309 58.9716L36.2051 59.6156C36.2244 59.6329 36.2495 59.6425 36.2755 59.6425C36.3015 59.6425 36.3266 59.6329 36.3459 59.6156C36.4116 59.5734 36.4626 59.5119 36.4918 59.4395C36.5297 59.3719 36.5496 59.2957 36.5496 59.2181C36.5496 59.1406 36.5297 59.0644 36.4918 58.9968L35.8177 58.3578Z" fill="#455A64"/>
<path d="M18.48 75.4338V73.0591C18.5044 72.6553 18.6231 72.2629 18.8267 71.9134C19.0303 71.5639 19.3131 71.267 19.6523 71.0466L117.948 14.2992C118.597 13.9218 119.12 14.2287 119.12 14.9734V17.3481C119.096 17.7519 118.977 18.1443 118.773 18.4938C118.57 18.8433 118.287 19.1402 117.948 19.3606L19.6472 76.108C19.0032 76.4854 18.48 76.1785 18.48 75.4338Z" fill="#FAFAFA"/>
<path d="M116.353 19.5619C116.318 19.5676 116.282 19.5676 116.247 19.5619C116.181 19.5314 116.128 19.4794 116.096 19.4144C116.064 19.3494 116.055 19.2754 116.071 19.2047L116.187 18.2437L115.734 17.9167C115.695 17.8857 115.663 17.8458 115.642 17.8004C115.621 17.7549 115.611 17.7051 115.613 17.655C115.611 17.5769 115.628 17.4994 115.661 17.4287C115.694 17.3579 115.743 17.2959 115.804 17.2475L116.494 16.7142C116.507 16.6979 116.518 16.6791 116.524 16.6588L116.831 15.6526C116.85 15.5698 116.893 15.4944 116.955 15.4362C117.016 15.3779 117.094 15.3394 117.178 15.3256C117.235 15.3191 117.292 15.3314 117.341 15.3604C117.39 15.3895 117.428 15.4338 117.45 15.4866L117.706 16.035L118.29 15.8136C118.342 15.7904 118.4 15.7848 118.455 15.7975C118.511 15.8102 118.56 15.8406 118.597 15.884C118.645 15.9536 118.67 16.0361 118.67 16.1205C118.67 16.2049 118.645 16.2874 118.597 16.357L118.094 17.2928C118.091 17.3112 118.091 17.3297 118.094 17.3481L118.214 18.1934C118.224 18.2707 118.215 18.3491 118.189 18.4224C118.163 18.4958 118.12 18.562 118.063 18.616C118.031 18.6547 117.988 18.6847 117.941 18.7031C117.894 18.7216 117.842 18.7279 117.792 18.7217L117.253 18.6361L116.645 19.4109C116.612 19.4582 116.569 19.4968 116.518 19.5231C116.467 19.5494 116.41 19.5628 116.353 19.5619ZM116.021 17.5997L116.474 17.9267C116.52 17.9649 116.556 18.0149 116.577 18.0714C116.599 18.128 116.604 18.1892 116.594 18.2487L116.514 18.8927L116.921 18.3896C116.956 18.34 117.003 18.3002 117.058 18.2738C117.112 18.2474 117.173 18.2353 117.233 18.2387L117.797 18.3091C117.801 18.2874 117.801 18.2653 117.797 18.2437L117.676 17.3984C117.667 17.2941 117.688 17.1893 117.736 17.0966L118.174 16.2765L117.757 16.4425C117.69 16.4698 117.616 16.4704 117.55 16.4441C117.483 16.4178 117.429 16.3668 117.399 16.3016L117.198 15.8689L116.921 16.7695C116.893 16.8709 116.833 16.9606 116.75 17.0261L116.061 17.5292C116.041 17.5484 116.027 17.5729 116.021 17.5997Z" fill="#E0E0E0"/>
<path d="M120.504 14.0073C120.413 14.0099 120.325 13.9821 120.252 13.9284C120.18 13.8747 120.127 13.7981 120.104 13.7111C120.08 13.624 120.086 13.5314 120.121 13.4483C120.156 13.3651 120.218 13.2962 120.297 13.2526L123.598 11.3457C123.644 11.3153 123.696 11.2947 123.751 11.2851C123.805 11.2755 123.861 11.2771 123.915 11.2899C123.969 11.3027 124.02 11.3264 124.065 11.3594C124.109 11.3925 124.146 11.4344 124.174 11.4824C124.202 11.5304 124.22 11.5835 124.226 11.6386C124.233 11.6936 124.228 11.7494 124.212 11.8026C124.196 11.8557 124.17 11.9051 124.134 11.9477C124.099 11.9902 124.055 12.0251 124.005 12.0501L120.705 13.9519C120.645 13.9894 120.575 14.0087 120.504 14.0073Z" fill="#455A64"/>
<path d="M120.504 15.9393C120.432 15.94 120.362 15.9217 120.3 15.8863C120.239 15.851 120.187 15.7998 120.152 15.7381C120.098 15.6444 120.083 15.5335 120.111 15.4291C120.138 15.3247 120.205 15.2351 120.297 15.1796L123.598 13.2778C123.644 13.2506 123.695 13.2329 123.748 13.2255C123.802 13.2181 123.856 13.2213 123.907 13.2349C123.959 13.2484 124.008 13.2721 124.051 13.3045C124.093 13.3369 124.129 13.3774 124.156 13.4237C124.183 13.4699 124.201 13.5209 124.208 13.5738C124.215 13.6268 124.211 13.6805 124.197 13.732C124.183 13.7835 124.159 13.8317 124.126 13.8738C124.093 13.9159 124.052 13.951 124.005 13.9772L120.705 15.884C120.645 15.9215 120.575 15.9407 120.504 15.9393Z" fill="#455A64"/>
<path d="M120.503 17.8211C120.414 17.8213 120.327 17.792 120.255 17.7376C120.184 17.6833 120.132 17.6069 120.109 17.5203C120.085 17.4338 120.091 17.3419 120.125 17.2589C120.159 17.1759 120.22 17.1065 120.297 17.0613L123.598 15.1545C123.692 15.1014 123.803 15.0874 123.908 15.1157C124.012 15.1439 124.101 15.2121 124.156 15.3054C124.183 15.3516 124.2 15.4026 124.207 15.4555C124.214 15.5085 124.211 15.5622 124.197 15.6138C124.183 15.6653 124.158 15.7135 124.126 15.7555C124.093 15.7976 124.052 15.8327 124.005 15.8589L120.705 17.7657C120.643 17.8009 120.574 17.8199 120.503 17.8211Z" fill="#455A64"/>
<path d="M35.9734 72.2893V75.2125C35.9734 75.8112 36.396 76.0527 36.9142 75.7559L76.1227 53.0851V47.9834L36.9193 70.6542C36.6439 70.8329 36.4147 71.0742 36.2503 71.3584C36.0859 71.6425 35.991 71.9615 35.9734 72.2893Z" fill="#E6E6E6"/>
<path d="M81.0635 45.1206C81.5666 44.8187 82.0043 45.0652 82.0043 45.664V48.5871C81.9861 48.9135 81.8914 49.2311 81.728 49.5142C81.5646 49.7973 81.337 50.0381 81.0635 50.2172L76.1228 53.0699V47.9834L81.0635 45.1206Z" fill="#C53F3F"/>
<path d="M80.6963 49.1456L80.1479 48.9695C80.2039 48.7372 80.2326 48.4991 80.2334 48.2601C80.259 48.0371 80.226 47.8113 80.1378 47.6048C80.0496 47.3984 79.9091 47.2185 79.7303 47.0828C79.6058 47.0165 79.4656 46.9853 79.3247 46.9924C79.1839 46.9995 79.0476 47.0446 78.9303 47.1231C78.5795 47.3922 78.297 47.7401 78.1056 48.1387C77.9142 48.5372 77.8192 48.9753 77.8285 49.4173C77.8029 49.6403 77.8359 49.8662 77.9241 50.0726C78.0123 50.279 78.1528 50.4589 78.3316 50.5946C78.4375 50.6545 78.5571 50.6857 78.6788 50.6852C78.8388 50.6835 78.9953 50.6383 79.1316 50.5544C79.5521 50.2663 79.8653 49.847 80.0221 49.362L80.5755 49.533C80.5954 49.5379 80.6161 49.5379 80.6359 49.533C80.6873 49.5383 80.7388 49.5236 80.7797 49.492C80.8205 49.4603 80.8477 49.4142 80.8554 49.3631C80.8632 49.312 80.851 49.2598 80.8214 49.2175C80.7917 49.1751 80.7469 49.1458 80.6963 49.1356V49.1456ZM78.9303 50.2022C78.8735 50.2436 78.8065 50.2687 78.7365 50.2749C78.6664 50.2811 78.5961 50.2681 78.5328 50.2374C78.4219 50.1341 78.3371 50.0058 78.2854 49.8632C78.2338 49.7206 78.2169 49.5677 78.236 49.4173C78.2306 49.0472 78.3082 48.6807 78.4632 48.3446C78.6182 48.0085 78.8466 47.7114 79.1316 47.4752C79.2077 47.4293 79.2943 47.4034 79.3831 47.3998C79.4347 47.3982 79.4856 47.4122 79.529 47.44C79.64 47.5434 79.7248 47.6717 79.7764 47.8142C79.828 47.9568 79.845 48.1097 79.8259 48.2601C79.8305 48.6294 79.7525 48.9949 79.5976 49.3301C79.4426 49.6653 79.2146 49.9615 78.9303 50.1972V50.2022Z" fill="#FAFAFA"/>
<path d="M19.3056 81.1053L7.31023 88.3559C7.03667 88.5326 6.80881 88.7714 6.64528 89.053C6.48176 89.3346 6.38721 89.6509 6.36938 89.976V92.8891C6.36938 93.4878 6.79201 93.7293 7.31023 93.4325L19.3056 86.1617C19.5786 85.9837 19.8057 85.7437 19.9683 85.4613C20.1309 85.1789 20.2245 84.862 20.2414 84.5366V81.6436C20.2414 81.0499 19.8238 80.8034 19.3056 81.1053Z" fill="#C53F3F"/>
<path d="M118.114 23.768C117.473 24.1869 116.939 24.7509 116.556 25.4143C116.173 26.0777 115.952 26.8219 115.91 27.5867C115.91 28.9954 116.916 29.564 118.114 28.8646C118.756 28.4454 119.291 27.8808 119.675 27.2165C120.059 26.5522 120.281 25.8069 120.323 25.0409C120.323 23.6321 119.331 23.0636 118.114 23.768Z" fill="#C53F3F"/>
<path d="M117.857 26.0019C117.788 26.0031 117.721 25.9857 117.661 25.9516C117.591 25.902 117.535 25.8352 117.498 25.7577C117.461 25.6802 117.444 25.5945 117.45 25.5088C117.459 25.3072 117.516 25.1106 117.617 24.9356C117.718 24.7606 117.859 24.6121 118.028 24.5026C118.097 24.4482 118.18 24.4158 118.268 24.4094C118.355 24.4031 118.443 24.4232 118.519 24.4672C118.595 24.5111 118.656 24.5768 118.694 24.6558C118.732 24.7347 118.745 24.8234 118.732 24.9101C118.722 25.1121 118.663 25.3086 118.562 25.4835C118.46 25.6584 118.319 25.8068 118.149 25.9164C118.06 25.9687 117.96 25.9981 117.857 26.0019Z" fill="white"/>
<path d="M118.984 26.1578C118.862 26.0967 118.725 26.07 118.588 26.0806C118.452 26.0913 118.321 26.1388 118.209 26.2182L117.887 26.4044C117.595 26.5896 117.351 26.8419 117.176 27.1403C117.001 27.4387 116.9 27.7746 116.881 28.12V28.3515C117.078 28.4366 117.294 28.4694 117.507 28.4464C117.72 28.4235 117.924 28.3457 118.099 28.2206C118.606 27.9049 119.025 27.4651 119.316 26.9427V26.8874C119.33 26.7473 119.306 26.6061 119.248 26.478C119.19 26.3499 119.099 26.2395 118.984 26.1578Z" fill="white"/>
<path d="M8.97599 154.671L48.431 131.889C49.075 131.517 49.6033 131.784 49.5983 132.483C49.5694 132.877 49.4482 133.258 49.2446 133.597C49.0409 133.935 48.7605 134.22 48.426 134.43L8.97599 157.212C8.33199 157.584 7.80371 157.317 7.80371 156.618C7.8326 156.224 7.95377 155.843 8.15743 155.504C8.36108 155.166 8.6415 154.881 8.97599 154.671Z" fill="#455A64"/>
<path d="M8.46279 159.27L30.6003 146.505C30.9676 146.294 31.2594 146.44 31.2594 146.837C31.2423 147.058 31.1739 147.272 31.0594 147.461C30.945 147.651 30.7877 147.811 30.6003 147.929L8.48795 160.693C8.1257 160.905 7.82886 160.754 7.82886 160.361C7.84308 160.143 7.90772 159.93 8.0177 159.741C8.12768 159.552 8.28002 159.39 8.46279 159.27Z" fill="#E0E0E0"/>
<path d="M17.0766 158.761L45.3371 142.45C45.9811 142.073 46.5094 142.339 46.5094 143.044C46.4805 143.437 46.3593 143.819 46.1556 144.157C45.952 144.495 45.6716 144.781 45.3371 144.991L17.0766 161.302C16.4275 161.674 15.9043 161.413 15.9043 160.708C15.9332 160.315 16.0544 159.933 16.258 159.595C16.4617 159.257 16.7421 158.971 17.0766 158.761Z" fill="#455A64"/>
<path d="M16.5584 163.355L27.4812 157.051C27.8485 156.839 28.1403 156.99 28.1403 157.383C28.1244 157.604 28.0564 157.818 27.9419 158.008C27.8273 158.198 27.6695 158.358 27.4812 158.475L16.5584 164.779C16.1961 164.985 15.9043 164.839 15.9043 164.447C15.9196 164.226 15.9868 164.012 16.1005 163.822C16.2141 163.633 16.371 163.472 16.5584 163.355Z" fill="#E0E0E0"/>
<path d="M10.8579 161.659C9.96168 162.244 9.2158 163.031 8.68082 163.958C8.14583 164.884 7.83681 165.924 7.77881 166.992C7.77881 168.955 9.15737 169.755 10.8579 168.768C11.7547 168.185 12.501 167.397 13.0361 166.471C13.5712 165.544 13.8798 164.504 13.9371 163.435C13.9371 161.473 12.5585 160.678 10.8579 161.659Z" fill="#C53F3F"/>
<path d="M10.5002 164.789C10.4031 164.792 10.307 164.768 10.2235 164.718C10.1232 164.652 10.0426 164.56 9.99032 164.452C9.93805 164.344 9.91605 164.224 9.92668 164.104C9.94038 163.822 10.0216 163.548 10.1634 163.303C10.3052 163.059 10.5035 162.853 10.7417 162.701C10.8396 162.631 10.9546 162.59 11.0743 162.581C11.194 162.572 11.3139 162.596 11.421 162.65C11.5213 162.716 11.6019 162.808 11.6542 162.916C11.7064 163.024 11.7284 163.145 11.7178 163.264C11.7042 163.546 11.6237 163.82 11.4828 164.064C11.3419 164.308 11.1448 164.515 10.9078 164.668C10.7846 164.743 10.6442 164.784 10.5002 164.789Z" fill="white"/>
<path d="M12.1005 164.995C11.9285 164.91 11.7367 164.873 11.5453 164.888C11.3539 164.903 11.1702 164.969 11.0137 165.081L10.571 165.337C10.1646 165.597 9.82646 165.951 9.58485 166.368C9.34325 166.786 9.20523 167.255 9.18237 167.737V168.054C9.45713 168.174 9.75847 168.221 10.0567 168.189C10.3549 168.157 10.6397 168.048 10.8829 167.873C11.5917 167.433 12.1769 166.82 12.5835 166.092V166.016C12.6005 165.819 12.5648 165.62 12.4799 165.441C12.3951 165.261 12.2642 165.107 12.1005 164.995Z" fill="white"/>
<path d="M8.1901 97.4247L122.581 31.0691C123.23 30.6917 123.753 30.9987 123.753 31.7433V84.2041C123.729 84.6078 123.61 85.0002 123.406 85.3498C123.203 85.6993 122.92 85.9962 122.581 86.2166L8.1901 152.592C7.5461 152.97 7.01782 152.663 7.01782 151.918V99.4372C7.04338 99.0337 7.16264 98.6417 7.36613 98.2924C7.56963 97.9431 7.85175 97.646 8.1901 97.4247Z" fill="#455A64"/>
<path d="M95.497 50.5635C97.0608 49.5991 98.3739 50.3077 98.4248 52.1434C98.3973 53.1443 98.1347 54.1247 97.658 55.0053C97.1814 55.8859 96.5042 56.6419 95.6811 57.2123C94.1174 58.1766 92.8042 57.4681 92.7532 55.6274C92.7803 54.627 93.0428 53.6472 93.5195 52.7673C93.9963 51.8875 94.6737 51.1324 95.497 50.5635Z" fill="#C53F3F"/>
<path d="M95.3887 54.3377C95.3666 54.3515 95.3464 54.3547 95.3282 54.3475C95.3122 54.3363 95.3038 54.3177 95.3031 54.2917L95.2516 52.4321L94.8084 53.1252C94.7933 53.1505 94.7769 53.1686 94.7592 53.1796C94.7349 53.1948 94.7124 53.1929 94.6916 53.174L94.4875 52.9951C94.4758 52.9811 94.4698 52.965 94.4693 52.9468C94.4683 52.9103 94.4808 52.8747 94.5068 52.84L95.2507 51.6696C95.2745 51.6362 95.3008 51.6106 95.3296 51.5927L95.7443 51.3345C95.7687 51.3194 95.7888 51.3161 95.8048 51.3247C95.8208 51.3333 95.8292 51.3519 95.83 51.3806L95.9003 53.9199C95.901 53.946 95.8939 53.9742 95.879 54.0047C95.8641 54.0326 95.8444 54.0541 95.8201 54.0692L95.3887 54.3377Z" fill="#455A64"/>
<path d="M101.886 48.0965L115.639 39.6625C116.02 39.4304 116.332 39.5778 116.343 39.9953C116.334 40.2283 116.269 40.4557 116.153 40.6585C116.038 40.8613 115.876 41.0337 115.681 41.1612L101.927 49.5952C101.551 49.8271 101.235 49.6798 101.224 49.2624C101.237 49.0302 101.303 48.8041 101.418 48.6019C101.533 48.3996 101.693 48.2267 101.886 48.0965Z" fill="#C53F3F"/>
<path d="M101.744 50.7982L111.182 45.0002C111.439 44.8421 111.658 44.9417 111.666 45.2284C111.66 45.3889 111.615 45.5455 111.536 45.6852C111.457 45.8249 111.345 45.9435 111.21 46.0312L101.773 51.8292C101.515 51.9873 101.296 51.8877 101.288 51.601C101.295 51.4405 101.339 51.2839 101.419 51.1442C101.498 51.0045 101.61 50.8859 101.744 50.7982Z" fill="#E0E0E0"/>
<path d="M95.7735 60.5467C97.3374 59.5873 98.6506 60.2959 98.7014 62.1316C98.674 63.1325 98.4113 64.1129 97.9347 64.9935C97.4581 65.8741 96.7808 66.6302 95.9578 67.2005C94.3939 68.1598 93.0807 67.4513 93.0299 65.6156C93.0573 64.6147 93.32 63.6342 93.7966 62.7536C94.2733 61.873 94.9505 61.117 95.7735 60.5467Z" fill="#C53F3F"/>
<path d="M94.9688 64.7596C94.9445 64.7747 94.9232 64.7787 94.905 64.7714C94.889 64.7629 94.8806 64.7442 94.8798 64.7156L94.8721 64.4382C94.87 64.3601 94.8959 64.2791 94.9498 64.1952L95.2838 63.5819C95.4801 63.2743 95.6288 63.0374 95.7299 62.8711C95.8311 62.7048 95.907 62.5635 95.9578 62.4471C96.0086 62.3307 96.0329 62.2347 96.0308 62.1592C96.0251 61.9535 95.936 61.9043 95.7635 62.0117C95.6728 62.0681 95.604 62.144 95.5572 62.2394C95.5102 62.3322 95.4804 62.4316 95.4675 62.5376C95.4559 62.6058 95.4192 62.6592 95.3572 62.6977L94.9425 62.9558C94.9226 62.9682 94.9058 62.9707 94.892 62.9634C94.8783 62.956 94.8712 62.9406 94.8705 62.9172C94.8703 62.7477 94.9048 62.5713 94.974 62.3878C95.0453 62.2004 95.1473 62.0243 95.28 61.8596C95.4148 61.6909 95.5707 61.5514 95.7477 61.4413C95.9335 61.3256 96.0937 61.2617 96.2284 61.2494C96.3631 61.2371 96.4665 61.2734 96.5386 61.3584C96.6107 61.4433 96.6491 61.5704 96.6538 61.7397C96.6588 61.922 96.6148 62.119 96.5216 62.3306C96.4306 62.5383 96.2891 62.7906 96.0971 63.0877L95.8019 63.641L96.6546 63.1102C96.6789 63.0951 96.6991 63.0918 96.7151 63.1004C96.7333 63.1076 96.7428 63.1256 96.7436 63.1542L96.7545 63.5488C96.7553 63.5774 96.7471 63.6064 96.7299 63.6356C96.7149 63.6635 96.6953 63.685 96.6709 63.7002L94.9688 64.7596Z" fill="#455A64"/>
<path d="M102.162 58.0797L115.916 49.6456C116.297 49.4136 116.608 49.561 116.62 49.9734C116.61 50.2071 116.545 50.4352 116.43 50.6388C116.315 50.8424 116.153 51.0157 115.957 51.1444L102.204 59.5834C101.828 59.8153 101.512 59.6681 101.5 59.2506C101.513 59.0175 101.579 58.7905 101.694 58.5873C101.809 58.3841 101.969 58.2104 102.162 58.0797Z" fill="#C53F3F"/>
<path d="M102.021 60.7864L111.459 54.9885C111.716 54.8254 111.935 54.93 111.943 55.2117C111.937 55.3721 111.892 55.5288 111.812 55.6684C111.733 55.8081 111.622 55.9268 111.487 56.0145L102.049 61.8124C101.792 61.9705 101.573 61.8659 101.565 61.5842C101.572 61.4246 101.617 61.269 101.697 61.1302C101.776 60.9915 101.887 60.8736 102.021 60.7864Z" fill="#E0E0E0"/>
<path d="M96.0497 70.535C97.6135 69.5706 98.9266 70.2791 98.9776 72.1199C98.9506 73.1202 98.688 74.1001 98.2113 74.9799C97.7346 75.8598 97.0571 76.6148 96.2339 77.1837C94.6701 78.1481 93.357 77.4396 93.3061 75.6039C93.3335 74.603 93.5962 73.6225 94.0728 72.7419C94.5495 71.8613 95.2267 71.1053 96.0497 70.535Z" fill="#C53F3F"/>
<path d="M96.1023 74.254C95.8877 74.3876 95.7064 74.4607 95.5582 74.4735C95.4123 74.4848 95.3023 74.4552 95.2284 74.3847C95.1565 74.3102 95.1168 74.2157 95.1091 74.1012C95.1085 74.0778 95.1146 74.0541 95.1274 74.0302C95.1425 74.005 95.1599 73.9861 95.1799 73.9738L95.6145 73.7032C95.6388 73.6881 95.6589 73.6809 95.6747 73.6817C95.6904 73.6825 95.7054 73.693 95.7194 73.7134C95.7674 73.8213 95.8898 73.814 96.0867 73.6915C96.1995 73.6213 96.2861 73.5369 96.3464 73.4385C96.4088 73.3361 96.4385 73.2314 96.4355 73.1247C96.4298 72.9163 96.3119 72.8837 96.0818 73.0269L95.7135 73.2561C95.6914 73.2699 95.6712 73.2732 95.653 73.266C95.637 73.2548 95.6286 73.2361 95.6279 73.2101L95.6218 72.9913C95.6202 72.934 95.6367 72.8787 95.6712 72.8254L96.2003 71.9437L95.2779 72.5178C95.2558 72.5316 95.2356 72.5349 95.2174 72.5277C95.2014 72.5165 95.193 72.4978 95.1923 72.4718L95.1821 72.1046C95.1813 72.0759 95.1884 72.0477 95.2034 72.0198C95.2206 71.9905 95.2402 71.969 95.2623 71.9553L96.7886 71.0053C96.8129 70.9902 96.8331 70.9869 96.8491 70.9955C96.8673 71.0027 96.8768 71.0206 96.8776 71.0493L96.8868 71.3814C96.8882 71.4309 96.8717 71.4848 96.8373 71.5433L96.3482 72.4081L96.3716 72.4014C96.576 72.306 96.7386 72.2869 96.8595 72.3442C96.9824 72.3975 97.0472 72.5439 97.0539 72.7835C97.0587 72.958 97.0209 73.1365 96.9405 73.3191C96.86 73.5016 96.7467 73.6742 96.6004 73.8367C96.4541 73.9993 96.2881 74.1384 96.1023 74.254Z" fill="#455A64"/>
<path d="M102.439 68.0679L116.192 59.6037C116.573 59.3717 116.884 59.5241 116.896 59.9365C116.886 60.1702 116.821 60.3981 116.706 60.6016C116.591 60.8052 116.429 60.9785 116.234 61.1075L102.481 69.5717C102.105 69.8036 101.789 69.6513 101.777 69.2389C101.79 69.0058 101.856 68.7787 101.971 68.5756C102.085 68.3724 102.246 68.1986 102.439 68.0679Z" fill="#C53F3F"/>
<path d="M102.298 70.7746L111.735 64.9767C111.993 64.8186 112.212 64.9232 112.22 65.2049C112.213 65.3654 112.169 65.522 112.089 65.6617C112.01 65.8013 111.898 65.92 111.764 66.0077L102.326 71.8056C102.069 71.9688 101.85 71.8641 101.842 71.5825C101.848 71.4211 101.892 71.2635 101.971 71.1229C102.05 70.9823 102.162 70.8628 102.298 70.7746Z" fill="#E0E0E0"/>
<path d="M46.2229 110.408C43.3511 110.756 35.6235 111.032 35.6235 111.032C30.5255 108.793 26.5407 103.882 26.0351 98.3469L25.8142 95.9636C25.3894 91.4434 28.6393 87.2249 32.9683 85.8655C34.2374 85.453 35.5831 85.3316 36.9056 85.5104C38.2281 85.6891 39.4933 86.1634 40.6074 86.8979C41.7215 87.6325 42.6559 88.6085 43.3412 89.7536C44.0265 90.8987 44.4451 92.1834 44.5661 93.5124C44.6723 94.6849 44.9909 95.7214 45.9383 96.4861C46.4678 96.8651 47.0377 97.1842 47.6376 97.4377C48.4998 97.8161 49.2847 98.3504 49.9529 99.0139C50.2839 99.3481 50.5426 99.7469 50.7129 100.185C50.8832 100.624 50.9614 101.093 50.9427 101.563C50.8753 102.167 50.6382 102.74 50.2587 103.215C50.1865 103.285 50.1439 103.379 50.1398 103.479C50.155 103.549 50.1888 103.613 50.2375 103.666C51.1169 104.792 51.5799 106.346 51.0532 107.672C50.6864 108.503 50.0421 109.18 49.2307 109.588C48.4202 109.991 47.5465 110.251 46.6477 110.357L46.2229 110.408Z" fill="#263238"/>
<path d="M71.075 102.396C70.9252 102.19 70.7527 102.002 70.5609 101.835C70.2253 101.525 69.7623 101.24 69.3332 101.41C69.0813 101.534 68.8737 101.733 68.7384 101.979C68.4665 102.379 68.1437 102.748 67.8888 103.16C67.54 103.762 67.1376 104.33 66.6865 104.86C66.4953 105.089 66.2192 105.403 65.8921 105.306C65.8335 105.289 65.7806 105.257 65.7392 105.212C65.7037 105.165 65.6804 105.109 65.6712 105.051C65.6311 104.767 65.647 104.478 65.7179 104.201C65.7865 103.922 65.7865 103.63 65.7179 103.351C65.6791 103.214 65.5967 103.094 65.4833 103.008C65.3698 102.922 65.2315 102.876 65.0892 102.876C65.0098 102.88 64.9353 102.915 64.881 102.973C64.8439 103.014 64.815 103.062 64.796 103.113C64.2403 104.214 63.8359 105.384 63.5938 106.593C63.5386 107.128 63.442 107.657 63.3049 108.177C62.9438 109.299 61.6311 109.877 60.7092 110.527C58.7019 111.849 56.6289 113.068 54.4982 114.18C53.4532 113.263 46.8514 107.502 45.0289 105.981C42.4034 103.797 39.6166 104.775 39.2385 104.804C38.8604 104.834 38.3591 107.353 41.4476 111.007C41.4476 111.007 51.0784 119.155 52.9179 120.213C53.3724 120.472 53.9884 121.011 54.7319 120.982H54.7574H54.8508C54.9506 120.973 55.0489 120.953 55.144 120.922C56.0574 120.629 57.3616 119.499 57.9096 119.074C60.6711 116.852 63.317 114.49 65.8369 111.997C66.5548 111.3 67.3705 110.722 68.1479 110.089C69.1693 109.314 70.0343 108.353 70.6969 107.256C71.2024 106.484 71.5103 105.6 71.5933 104.681C71.6875 103.882 71.5046 103.075 71.075 102.396Z" fill="#FFA8A7"/>
<path d="M28.9872 124.499C26.7143 129.597 26.1621 132.571 25.9836 135.345C25.8052 138.119 26.0686 142.316 26.0686 142.316L46.1332 130.748C45.6869 127.922 45.0279 125.132 44.162 122.405L28.9872 124.499Z" fill="#C53F3F"/>
<path d="M44.1919 116.1L44.073 121.36C44.3364 122.392 44.7569 124.079 45.2285 125.608C44.9311 126.538 42.7348 129.041 38.0702 130.591C33.1422 132.231 27.5217 130.54 26.8972 129.317L28.8514 124.368C28.8514 124.368 27.1521 117.804 27.1266 117.723C27.1011 117.643 28.9491 114.975 29.0723 111.776C29.1955 108.577 28.3119 107.205 28.0315 106.899C28.159 106.843 31.035 106.049 31.035 106.049L36.7702 104.902L39.4678 104.728C41.7152 105.879 43.5356 107.719 44.6635 109.979C45.1849 110.935 45.4179 112.023 45.3342 113.109C45.2505 114.196 44.8538 115.235 44.1919 116.1Z" fill="#FAFAFA"/>
<path d="M40.9294 89.7101C41.5284 90.3219 42.7391 91.7876 42.6287 97.1021C42.514 101.61 41.0526 102.718 40.3176 103.05C39.5827 103.381 38.168 103.169 36.7958 102.939V105.136C36.7958 105.136 38.7415 106.491 39.23 107.719C39.6124 108.674 37.1824 110.008 33.4949 108.42C31.9867 107.77 30.7717 106.117 30.7717 106.117L30.8185 99.6086C30.8185 99.6086 30.0071 100.39 28.6391 99.1838C27.5091 98.1939 27.131 96.5201 28.0146 95.628C28.2442 95.4157 28.5209 95.261 28.8219 95.1765C29.1229 95.092 29.4397 95.0802 29.7462 95.142C30.0527 95.2038 30.3401 95.3374 30.5849 95.532C30.8296 95.7265 31.0247 95.9764 31.1541 96.261C33.0438 96.2901 34.9062 95.8086 36.5451 94.8675C39.4467 93.2617 40.7339 91.4604 40.9294 89.7101Z" fill="#FFA8A7"/>
<path d="M37.5136 96.2907C37.5143 96.4014 37.4824 96.5098 37.4221 96.6025C37.3617 96.6952 37.2755 96.7681 37.174 96.8123C37.0726 96.8564 36.9604 96.8698 36.8514 96.8508C36.7424 96.8318 36.6414 96.7812 36.561 96.7053C36.4805 96.6294 36.424 96.5316 36.3986 96.4239C36.3732 96.3162 36.38 96.2034 36.4181 96.0996C36.4562 95.9957 36.524 95.9053 36.613 95.8396C36.702 95.7739 36.8083 95.7358 36.9188 95.73C36.9947 95.7277 37.0703 95.7404 37.1412 95.7674C37.2122 95.7943 37.2772 95.835 37.3324 95.8871C37.3876 95.9392 37.4321 96.0016 37.4632 96.0709C37.4942 96.1401 37.5114 96.2149 37.5136 96.2907Z" fill="#263238"/>
<path d="M37.0805 99.6299L39.2046 100.016C39.1855 100.158 39.1382 100.294 39.0654 100.417C38.9925 100.539 38.8957 100.646 38.7808 100.731C38.6658 100.815 38.5349 100.875 38.3961 100.908C38.2572 100.941 38.1132 100.945 37.9726 100.921C37.6855 100.864 37.4321 100.697 37.2657 100.456C37.0993 100.215 37.0329 99.9188 37.0805 99.6299Z" fill="#B16668"/>
<path d="M37.9767 100.921C38.1168 100.951 38.2614 100.951 38.4015 100.921C38.3906 100.683 38.2884 100.458 38.116 100.292C37.9436 100.127 37.7142 100.034 37.4754 100.033C37.3468 100.032 37.2193 100.058 37.1016 100.11C37.1558 100.314 37.2668 100.499 37.4217 100.642C37.5766 100.786 37.769 100.883 37.9767 100.921Z" fill="#F28F8F"/>
<path d="M42.0169 94.4724L40.7424 93.9499C40.7721 93.8641 40.8189 93.7852 40.8801 93.7182C40.9412 93.6511 41.0155 93.5972 41.0982 93.5598C41.1809 93.5224 41.2704 93.5023 41.3612 93.5007C41.4519 93.4992 41.5421 93.5161 41.6261 93.5506C41.7963 93.6256 41.9316 93.7627 42.0042 93.934C42.0768 94.1053 42.0814 94.2979 42.0169 94.4724Z" fill="#263238"/>
<path d="M41.7194 95.8744C41.7192 95.9848 41.6867 96.0928 41.6259 96.185C41.565 96.2771 41.4784 96.3494 41.3769 96.3929C41.2754 96.4365 41.1633 96.4492 41.0546 96.4297C40.9459 96.4102 40.8453 96.3593 40.7652 96.2832C40.6851 96.2072 40.6291 96.1093 40.6041 96.0017C40.579 95.8941 40.5861 95.7816 40.6243 95.678C40.6625 95.5743 40.7303 95.4842 40.8192 95.4187C40.9082 95.3532 41.0143 95.3152 41.1246 95.3094C41.2783 95.3059 41.4271 95.3634 41.5385 95.4693C41.6499 95.5751 41.7149 95.7208 41.7194 95.8744Z" fill="#263238"/>
<path d="M39.0642 95.645L39.4551 98.9416L41.1544 98.1344L39.0642 95.645Z" fill="#F28F8F"/>
<path d="M36.7745 102.927C35.3259 102.731 32.3478 101.869 31.8848 100.688C32.0689 101.285 32.4323 101.812 32.9256 102.196C33.8135 102.961 36.7703 103.827 36.7703 103.827L36.7745 102.927Z" fill="#F28F8F"/>
<path d="M30.9288 97.9008C31.2995 97.8692 31.6425 97.6917 31.8823 97.4073C32.1221 97.1229 32.2391 96.7548 32.2075 96.3841C32.176 96.0134 31.9985 95.6705 31.7141 95.4307C31.4296 95.1909 31.0616 95.0739 30.6909 95.1054L30.9288 97.9008Z" fill="#263238"/>
<path d="M16.4847 127.239C17.1092 130.982 18.4772 134.461 22.581 141.433C23.0499 142.285 23.6206 143.076 24.2803 143.791C24.9728 144.54 25.8132 145.137 26.7486 145.545C27.2948 145.774 27.9017 145.814 28.4734 145.66C29.5864 145.392 30.5338 144.53 30.6187 143.999C30.7334 143.285 29.4547 142.563 28.9534 142.045C28.5286 141.62 27.6789 140.902 27.3943 140.511C27.1097 140.12 26.7868 139.806 27.1436 139.818C27.3603 139.818 27.5685 139.899 27.7766 139.925C27.9547 139.942 28.1339 139.942 28.3119 139.925C28.4906 139.937 28.6698 139.911 28.8371 139.847C29.0045 139.783 29.1558 139.684 29.2805 139.555C29.3334 139.49 29.366 139.412 29.3743 139.328C29.3826 139.245 29.3663 139.162 29.3273 139.088C29.2452 138.986 29.1363 138.91 29.0129 138.867C28.6201 138.718 28.2383 138.542 27.8701 138.34C27.5036 138.13 27.1503 137.897 26.8123 137.643C26.294 137.219 25.5888 136.76 25.2702 136.169C24.473 134.741 23.8674 133.214 23.4689 131.628C23.18 130.523 22.6192 128.403 22.3304 126.394C22.4238 126.139 23.7195 123.756 24.5565 122.371C25.7587 120.378 26.9057 118.671 28.0145 116.895C30.3553 114.04 30.1387 108.598 28.0655 106.903C24.4205 107.838 23.3712 109.405 22.1689 111.729C20.9964 113.989 17.8442 120.293 16.8034 123.407C16.3827 124.639 16.2733 125.955 16.4847 127.239Z" fill="#FFA8A7"/>
<path opacity="0.3" d="M21.3316 139.034L106.204 90.2361C106.749 89.92 107.2 90.1492 107.2 90.7419C107.174 91.0757 107.07 91.3989 106.898 91.6856C106.725 91.9724 106.487 92.2148 106.204 92.3935L21.3316 141.191C20.7785 141.507 20.3359 141.278 20.3359 140.685C20.36 140.351 20.4627 140.027 20.6357 139.74C20.8088 139.453 21.0472 139.211 21.3316 139.034Z" fill="white"/>
<path d="M21.3316 139.034L97.8512 95.0566C98.4043 94.7405 98.8469 94.9697 98.8469 95.5624C98.8229 95.8967 98.7201 96.2206 98.5471 96.5076C98.374 96.7947 98.1356 97.0367 97.8512 97.214L21.3316 141.191C20.7785 141.507 20.3359 141.278 20.3359 140.685C20.36 140.351 20.4627 140.027 20.6357 139.74C20.8088 139.453 21.0472 139.211 21.3316 139.034Z" fill="white"/>
<path d="M10.9476 145.15V147.268C10.9456 147.321 10.9308 147.372 10.9047 147.417C10.8785 147.462 10.8417 147.501 10.7975 147.529L10.3866 147.766C10.3717 147.777 10.354 147.783 10.3357 147.784C10.3173 147.785 10.2991 147.781 10.2832 147.771C10.2672 147.762 10.2544 147.749 10.2461 147.732C10.2378 147.716 10.2344 147.697 10.2364 147.679V145.561C10.2403 145.509 10.2558 145.459 10.2818 145.414C10.3078 145.369 10.3436 145.33 10.3866 145.3L10.7975 145.063C10.8844 145.016 10.9476 145.055 10.9476 145.15Z" fill="white"/>
<path d="M12.3704 144.328V146.446C12.3683 146.499 12.3536 146.55 12.3274 146.595C12.3013 146.641 12.2645 146.679 12.2203 146.707L11.8172 146.944C11.7303 146.992 11.6592 146.944 11.6592 146.857V144.739C11.6628 144.686 11.679 144.635 11.7065 144.59C11.734 144.544 11.772 144.506 11.8172 144.479L12.2203 144.242C12.3072 144.194 12.3704 144.234 12.3704 144.328Z" fill="white"/>
<path d="M18.0284 141.128V143.246C18.0245 143.298 18.009 143.348 17.983 143.393C17.957 143.438 17.9212 143.477 17.8783 143.507L17.6965 143.617C17.6096 143.665 17.5464 143.617 17.5464 143.53V141.412C17.5485 141.36 17.5632 141.309 17.5894 141.264C17.6155 141.218 17.6523 141.18 17.6965 141.152L17.8783 141.041C17.8931 141.03 17.9108 141.024 17.9292 141.023C17.9475 141.022 17.9658 141.026 17.9817 141.036C17.9976 141.045 18.0105 141.058 18.0188 141.075C18.0271 141.091 18.0304 141.11 18.0284 141.128Z" fill="white"/>
<path d="M15.041 142.772V144.85C15.041 145 15.12 145.032 15.2228 144.913L17.1352 142.709C17.2379 142.59 17.1905 142.495 17.0403 142.495H15.3176C15.2442 142.495 15.1739 142.524 15.122 142.576C15.0702 142.628 15.041 142.698 15.041 142.772Z" fill="white"/>
<path d="M117.141 84.3014C117.076 84.3014 117.014 84.2755 116.968 84.2296C116.922 84.1837 116.896 84.1214 116.896 84.0564V83.361C116.896 83.3193 116.907 83.2784 116.928 83.2423C116.949 83.2063 116.978 83.1763 117.015 83.1555L118.145 82.5075C118.171 82.4908 118.201 82.4798 118.232 82.4751C118.263 82.4705 118.295 82.4723 118.326 82.4805C118.356 82.4886 118.384 82.5029 118.409 82.5226C118.434 82.5422 118.454 82.5666 118.469 82.5944C118.498 82.6494 118.505 82.7134 118.489 82.7736C118.473 82.8338 118.435 82.8856 118.382 82.9184L117.378 83.4953V84.0564C117.378 84.12 117.353 84.1812 117.309 84.2269C117.265 84.2726 117.205 84.2993 117.141 84.3014Z" fill="#FAFAFA"/>
<path d="M122.262 81.3458C122.199 81.3458 122.139 81.3209 122.094 81.2764C122.05 81.2319 122.025 81.1716 122.025 81.1087V80.8164L121.235 81.2589C121.208 81.2745 121.178 81.2846 121.147 81.2887C121.116 81.2927 121.085 81.2907 121.055 81.2826C121.025 81.2745 120.996 81.2606 120.972 81.2416C120.947 81.2226 120.926 81.199 120.911 81.172C120.894 81.1453 120.883 81.1155 120.878 81.0843C120.874 81.0532 120.875 81.0214 120.884 80.991C120.892 80.9607 120.906 80.9323 120.926 80.9076C120.945 80.883 120.97 80.8627 120.998 80.848L122.12 80.2C122.155 80.1765 122.196 80.164 122.238 80.164C122.28 80.164 122.322 80.1765 122.357 80.2C122.394 80.2194 122.425 80.2491 122.446 80.2855C122.467 80.3219 122.477 80.3635 122.475 80.4054V81.1087C122.476 81.1677 122.454 81.2247 122.414 81.2685C122.375 81.3124 122.321 81.3399 122.262 81.3458Z" fill="#FAFAFA"/>
<path d="M117.141 87.4861C117.102 87.4952 117.061 87.4952 117.022 87.4861C116.985 87.4657 116.954 87.436 116.932 87.4C116.91 87.364 116.898 87.3229 116.896 87.2806V86.5773C116.906 86.5209 116.936 86.4698 116.98 86.4331C117.024 86.3963 117.08 86.3762 117.137 86.3762C117.194 86.3762 117.25 86.3963 117.294 86.4331C117.338 86.4698 117.368 86.5209 117.378 86.5773V86.8065L118.168 86.364C118.223 86.3345 118.287 86.3271 118.348 86.3433C118.408 86.3594 118.459 86.3979 118.492 86.4509C118.522 86.507 118.53 86.5723 118.514 86.6338C118.498 86.6953 118.459 86.7485 118.405 86.7828L117.283 87.4308C117.241 87.46 117.192 87.479 117.141 87.4861Z" fill="#FAFAFA"/>
<path d="M121.14 85.1785C121.087 85.1786 121.037 85.1614 120.995 85.1296C120.954 85.0978 120.924 85.0532 120.91 85.0028C120.897 84.9523 120.9 84.8988 120.92 84.8506C120.94 84.8023 120.976 84.762 121.021 84.736L122.025 84.1512V83.5901C122.025 83.5272 122.05 83.4669 122.094 83.4225C122.139 83.378 122.199 83.353 122.262 83.353C122.325 83.353 122.385 83.378 122.429 83.4225C122.474 83.4669 122.499 83.5272 122.499 83.5901V84.2934C122.501 84.3354 122.49 84.377 122.47 84.4134C122.449 84.4498 122.418 84.4794 122.38 84.4989L121.258 85.1469C121.222 85.1684 121.181 85.1794 121.14 85.1785Z" fill="#FAFAFA"/>
<path d="M114.565 86.8697H114.525H114.067C114.057 86.8708 114.047 86.8698 114.037 86.8667C114.028 86.8636 114.019 86.8585 114.011 86.8518C114.004 86.8451 113.998 86.8369 113.994 86.8277C113.99 86.8185 113.988 86.8086 113.988 86.7985C113.992 86.7275 113.992 86.6562 113.988 86.5852C113.988 86.5061 113.988 86.4271 113.988 86.356C113.986 86.3069 114.003 86.259 114.035 86.2216L114.541 85.6053C114.551 85.5858 114.557 85.5641 114.557 85.542C114.557 85.52 114.551 85.4983 114.541 85.4788L114.304 84.9415C114.304 84.9415 114.256 84.9415 114.233 84.9415L113.687 85.4393C113.669 85.4522 113.647 85.4591 113.624 85.4591C113.602 85.4591 113.58 85.4522 113.561 85.4393C113.494 85.3808 113.416 85.3353 113.332 85.305C113.313 85.2979 113.297 85.2847 113.287 85.2674C113.277 85.2501 113.273 85.2299 113.277 85.2101L113.443 84.4199C113.443 84.4199 113.443 84.3804 113.443 84.3646H113.395L112.858 84.4199C112.834 84.4234 112.812 84.4324 112.793 84.4462C112.774 84.4599 112.758 84.478 112.747 84.4989L112.455 85.2892C112.432 85.3427 112.39 85.3853 112.336 85.4077C112.222 85.4607 112.114 85.5242 112.012 85.5974C111.965 85.5974 111.917 85.5974 111.894 85.5974L111.625 85.1864C111.625 85.1864 111.562 85.1864 111.522 85.1864L110.937 85.8028C110.905 85.8397 110.888 85.8879 110.89 85.9372L111.056 86.4903C111.07 86.5313 111.07 86.5758 111.056 86.6168C110.961 86.7748 110.866 86.925 110.787 87.0909C110.758 87.1365 110.713 87.1701 110.661 87.1857L110.163 87.3043C110.137 87.3095 110.113 87.3209 110.092 87.3374C110.072 87.3538 110.055 87.375 110.044 87.3991L109.792 88.2447C109.789 88.2542 109.789 88.2641 109.791 88.2737C109.793 88.2833 109.797 88.2923 109.803 88.3C109.81 88.3077 109.817 88.3138 109.826 88.3179C109.835 88.322 109.845 88.324 109.855 88.3237H110.313C110.334 88.3237 110.354 88.332 110.369 88.3469C110.384 88.3617 110.392 88.3818 110.392 88.4027C110.376 88.5472 110.376 88.6929 110.392 88.8374C110.392 88.8863 110.375 88.9337 110.345 88.9717L109.831 89.596C109.821 89.6155 109.815 89.6372 109.815 89.6592C109.815 89.6813 109.821 89.703 109.831 89.7224L110.076 90.2598C110.076 90.2598 110.116 90.2598 110.139 90.2598L110.685 89.762C110.701 89.7485 110.722 89.7411 110.744 89.7411C110.765 89.7411 110.786 89.7485 110.803 89.762C110.873 89.8195 110.95 89.8673 111.032 89.9042C111.052 89.9098 111.069 89.9228 111.079 89.9404C111.089 89.9581 111.092 89.9791 111.088 89.999L110.922 90.7893C110.922 90.7893 110.922 90.8288 110.922 90.8446H110.969L111.506 90.7893C111.531 90.7877 111.555 90.7795 111.576 90.7657C111.597 90.7518 111.614 90.7327 111.625 90.7102L111.909 89.92C111.937 89.8718 111.978 89.8332 112.028 89.8094L112.194 89.7145L112.36 89.6197C112.36 89.6197 112.455 89.5802 112.47 89.6197L112.747 90.0385C112.76 90.0462 112.775 90.0502 112.791 90.0502C112.806 90.0502 112.821 90.0462 112.834 90.0385L113.419 89.4221C113.436 89.4062 113.449 89.3865 113.458 89.3646C113.466 89.3426 113.469 89.319 113.466 89.2957L113.3 88.7425C113.286 88.6988 113.286 88.6519 113.3 88.6082C113.4 88.4591 113.49 88.3033 113.569 88.1419C113.598 88.0959 113.643 88.0621 113.695 88.0471L114.201 87.9286C114.249 87.9286 114.304 87.8733 114.312 87.8338L114.565 86.9803C114.579 86.9803 114.593 86.9745 114.604 86.9641C114.614 86.9537 114.62 86.9396 114.62 86.925C114.62 86.9103 114.614 86.8962 114.604 86.8859C114.593 86.8755 114.579 86.8697 114.565 86.8697ZM111.886 88.9401H111.688C111.58 88.9392 111.474 88.9065 111.384 88.8461C111.294 88.7857 111.224 88.7002 111.182 88.6003C111.143 88.5128 111.119 88.4193 111.111 88.3237C111.107 88.2711 111.107 88.2183 111.111 88.1657C111.141 87.5976 111.374 87.0591 111.767 86.6484C111.885 86.5216 112.021 86.4125 112.17 86.3244L112.305 86.2533C112.424 86.1992 112.553 86.1722 112.684 86.1742H112.747C112.84 86.1866 112.929 86.224 113.002 86.2825C113.076 86.3409 113.133 86.4182 113.166 86.5061C113.25 86.8522 113.241 87.2145 113.14 87.556C113.038 87.8975 112.848 88.206 112.589 88.4501C112.408 88.6787 112.163 88.849 111.886 88.9401Z" fill="white"/>
</svg>
